<svg xmlns="http://www.w3.org/2000/svg" xmlns:xlink="http://www.w3.org/1999/xlink" xmlns:lucid="lucid" width="2518.5" height="1329"><g transform="translate(3005.875 1673.5882733825856)" lucid:page-tab-id="0_0"><path d="M-3000-2000h2500V0h-2500z" fill="#fff"/><path d="M-1652.02-1647.1a6 6 0 0 1 6-6h372.87a6 6 0 0 1 6 6v321a6 6 0 0 1-6 6h-372.87a6 6 0 0 1-6-6z" stroke="#3a414a" fill="#fff"/><path d="M-1652.02-1610.7h384.87m-384.87 231.9h384.87" stroke="#3a414a" fill="none"/><use xlink:href="#a" transform="matrix(1,0,0,1,-1644.0234375,-1645.0882733825856) translate(161.3388888888889 17.9)"/><use xlink:href="#b" transform="matrix(1,0,0,1,-1640.0234375,-1602.6882733825855) translate(0 25.20000000000001)"/><use xlink:href="#c" transform="matrix(1,0,0,1,-1640.0234375,-1602.6882733825855) translate(34.45 25.20000000000001)"/><use xlink:href="#d" transform="matrix(1,0,0,1,-1640.0234375,-1602.6882733825855) translate(0 46.80000000000001)"/><use xlink:href="#e" transform="matrix(1,0,0,1,-1640.0234375,-1602.6882733825855) translate(97.3 46.80000000000001)"/><use xlink:href="#f" transform="matrix(1,0,0,1,-1640.0234375,-1602.6882733825855) translate(0 68.40000000000002)"/><use xlink:href="#e" transform="matrix(1,0,0,1,-1640.0234375,-1602.6882733825855) translate(96.35000000000001 68.40000000000002)"/><use xlink:href="#g" transform="matrix(1,0,0,1,-1640.0234375,-1602.6882733825855) translate(0 90.00000000000003)"/><use xlink:href="#e" transform="matrix(1,0,0,1,-1640.0234375,-1602.6882733825855) translate(63.35000000000001 90.00000000000003)"/><use xlink:href="#h" transform="matrix(1,0,0,1,-1640.0234375,-1602.6882733825855) translate(0 111.60000000000002)"/><use xlink:href="#e" transform="matrix(1,0,0,1,-1640.0234375,-1602.6882733825855) translate(97.4 111.60000000000002)"/><use xlink:href="#i" transform="matrix(1,0,0,1,-1640.0234375,-1602.6882733825855) translate(0 133.20000000000002)"/><use xlink:href="#e" transform="matrix(1,0,0,1,-1640.0234375,-1602.6882733825855) translate(187.3 133.20000000000002)"/><use xlink:href="#j" transform="matrix(1,0,0,1,-1640.0234375,-1602.6882733825855) translate(0 154.8)"/><use xlink:href="#k" transform="matrix(1,0,0,1,-1640.0234375,-1602.6882733825855) translate(199.25 154.8)"/><use xlink:href="#l" transform="matrix(1,0,0,1,-1640.0234375,-1602.6882733825855) translate(0 176.4)"/><use xlink:href="#m" transform="matrix(1,0,0,1,-1640.0234375,-1602.6882733825855) translate(54.5 176.4)"/><use xlink:href="#n" transform="matrix(1,0,0,1,-1640.0234375,-1602.6882733825855) translate(0 198)"/><use xlink:href="#o" transform="matrix(1,0,0,1,-1640.0234375,-1602.6882733825855) translate(125.25000000000001 198)"/><path d="M-2421.28-1254a6 6 0 0 1 6-6h285.6a6 6 0 0 1 6 6v235a6 6 0 0 1-6 6h-285.6a6 6 0 0 1-6-6z" stroke="#3a414a" fill="#fff"/><path d="M-2421.28-1217.6h297.6m-297.6 145.5h297.6" stroke="#3a414a" fill="none"/><use xlink:href="#p" transform="matrix(1,0,0,1,-2413.2777622921994,-1252) translate(108.03055555555557 17.9)"/><use xlink:href="#b" transform="matrix(1,0,0,1,-2409.2777622921994,-1209.6) translate(0 25.39999999999999)"/><use xlink:href="#c" transform="matrix(1,0,0,1,-2409.2777622921994,-1209.6) translate(34.45 25.39999999999999)"/><use xlink:href="#q" transform="matrix(1,0,0,1,-2409.2777622921994,-1209.6) translate(0 46.99999999999999)"/><use xlink:href="#e" transform="matrix(1,0,0,1,-2409.2777622921994,-1209.6) translate(65.45 46.99999999999999)"/><use xlink:href="#r" transform="matrix(1,0,0,1,-2409.2777622921994,-1209.6) translate(0 68.6)"/><use xlink:href="#e" transform="matrix(1,0,0,1,-2409.2777622921994,-1209.6) translate(79.4 68.6)"/><use xlink:href="#s" transform="matrix(1,0,0,1,-2409.2777622921994,-1209.6) translate(0 90.20000000000002)"/><use xlink:href="#e" transform="matrix(1,0,0,1,-2409.2777622921994,-1209.6) translate(152.3 90.20000000000002)"/><use xlink:href="#t" transform="matrix(1,0,0,1,-2409.2777622921994,-1209.6) translate(0 111.80000000000001)"/><use xlink:href="#o" transform="matrix(1,0,0,1,-2409.2777622921994,-1209.6) translate(144.3 111.80000000000001)"/><path d="M-1140-1023.1a6 6 0 0 1 6-6h284.13a6 6 0 0 1 6 6v213a6 6 0 0 1-6 6H-1134a6 6 0 0 1-6-6z" stroke="#3a414a" fill="#fff"/><path d="M-1140-986.7h296.13M-1140-862.8h296.13" stroke="#3a414a" fill="none"/><use xlink:href="#u" transform="matrix(1,0,0,1,-1132,-1021.0882733825856) translate(79.48055555555554 17.9)"/><use xlink:href="#b" transform="matrix(1,0,0,1,-1128,-978.6882733825856) translate(0 25.19999999999999)"/><use xlink:href="#c" transform="matrix(1,0,0,1,-1128,-978.6882733825856) translate(34.45 25.19999999999999)"/><use xlink:href="#v" transform="matrix(1,0,0,1,-1128,-978.6882733825856) translate(0 46.79999999999999)"/><use xlink:href="#e" transform="matrix(1,0,0,1,-1128,-978.6882733825856) translate(68.5 46.79999999999999)"/><use xlink:href="#w" transform="matrix(1,0,0,1,-1128,-978.6882733825856) translate(0 68.39999999999999)"/><use xlink:href="#k" transform="matrix(1,0,0,1,-1128,-978.6882733825856) translate(119.45 68.39999999999999)"/><use xlink:href="#x" transform="matrix(1,0,0,1,-1128,-978.6882733825856) translate(0 90)"/><use xlink:href="#y" transform="matrix(1,0,0,1,-1128,-978.6882733825856) translate(168.2 90)"/><path d="M-2438.95-834a6 6 0 0 1 6-6h282.6a6 6 0 0 1 6 6v235a6 6 0 0 1-6 6h-282.6a6 6 0 0 1-6-6z" stroke="#3a414a" fill="#fff"/><path d="M-2438.95-797.6h294.6m-294.6 145.5h294.6" stroke="#3a414a" fill="none"/><use xlink:href="#z" transform="matrix(1,0,0,1,-2430.9488154411547,-832) translate(79.09166666666665 17.9)"/><use xlink:href="#b" transform="matrix(1,0,0,1,-2426.9488154411547,-789.6) translate(0 25.39999999999999)"/><use xlink:href="#c" transform="matrix(1,0,0,1,-2426.9488154411547,-789.6) translate(34.45 25.39999999999999)"/><use xlink:href="#A" transform="matrix(1,0,0,1,-2426.9488154411547,-789.6) translate(0 46.99999999999999)"/><use xlink:href="#k" transform="matrix(1,0,0,1,-2426.9488154411547,-789.6) translate(93.4 46.99999999999999)"/><use xlink:href="#B" transform="matrix(1,0,0,1,-2426.9488154411547,-789.6) translate(0 68.6)"/><use xlink:href="#k" transform="matrix(1,0,0,1,-2426.9488154411547,-789.6) translate(88.45 68.6)"/><use xlink:href="#C" transform="matrix(1,0,0,1,-2426.9488154411547,-789.6) translate(0 90.20000000000002)"/><use xlink:href="#e" transform="matrix(1,0,0,1,-2426.9488154411547,-789.6) translate(140.45 90.20000000000002)"/><use xlink:href="#D" transform="matrix(1,0,0,1,-2426.9488154411547,-789.6) translate(0 111.80000000000001)"/><use xlink:href="#o" transform="matrix(1,0,0,1,-2426.9488154411547,-789.6) translate(149.4 111.80000000000001)"/><path d="M-2985.38-1025.1a6 6 0 0 1 6-6h257.44a6 6 0 0 1 6 6v213a6 6 0 0 1-6 6h-257.43a6 6 0 0 1-6-6z" stroke="#3a414a" fill="#fff"/><path d="M-2985.38-988.7h269.44m-269.43 123.9h269.43" stroke="#3a414a" fill="none"/><use xlink:href="#E" transform="matrix(1,0,0,1,-2977.375,-1023.0882733825856) translate(64.75833333333333 17.9)"/><use xlink:href="#F" transform="matrix(1,0,0,1,-2973.375,-980.6882733825856) translate(0 25.19999999999999)"/><use xlink:href="#e" transform="matrix(1,0,0,1,-2973.375,-980.6882733825856) translate(105.4 25.19999999999999)"/><use xlink:href="#G" transform="matrix(1,0,0,1,-2973.375,-980.6882733825856) translate(0 46.79999999999999)"/><use xlink:href="#e" transform="matrix(1,0,0,1,-2973.375,-980.6882733825856) translate(135.45 46.79999999999999)"/><use xlink:href="#H" transform="matrix(1,0,0,1,-2973.375,-980.6882733825856) translate(0 68.39999999999999)"/><use xlink:href="#k" transform="matrix(1,0,0,1,-2973.375,-980.6882733825856) translate(105.45 68.39999999999999)"/><use xlink:href="#I" transform="matrix(1,0,0,1,-2973.375,-980.6882733825856) translate(0 90)"/><use xlink:href="#J" transform="matrix(1,0,0,1,-2973.375,-980.6882733825856) translate(103.4 90)"/><path d="M-1637.18-1025.1a6 6 0 0 1 6-6h242.53a6 6 0 0 1 6 6v213a6 6 0 0 1-6 6h-242.53a6 6 0 0 1-6-6z" stroke="#3a414a" fill="#fff"/><path d="M-1637.18-988.7h254.53m-254.53 123.9h254.53" stroke="#3a414a" fill="none"/><use xlink:href="#K" transform="matrix(1,0,0,1,-1629.1796875,-1023.0882733825856) translate(71.25277777777778 17.9)"/><use xlink:href="#b" transform="matrix(1,0,0,1,-1625.1796875,-980.6882733825856) translate(0 25.19999999999999)"/><use xlink:href="#c" transform="matrix(1,0,0,1,-1625.1796875,-980.6882733825856) translate(34.45 25.19999999999999)"/><use xlink:href="#L" transform="matrix(1,0,0,1,-1625.1796875,-980.6882733825856) translate(0 46.79999999999999)"/><use xlink:href="#c" transform="matrix(1,0,0,1,-1625.1796875,-980.6882733825856) translate(65.4 46.79999999999999)"/><use xlink:href="#M" transform="matrix(1,0,0,1,-1625.1796875,-980.6882733825856) translate(0 68.39999999999999)"/><use xlink:href="#e" transform="matrix(1,0,0,1,-1625.1796875,-980.6882733825856) translate(94.4 68.39999999999999)"/><use xlink:href="#N" transform="matrix(1,0,0,1,-1625.1796875,-980.6882733825856) translate(0 90)"/><use xlink:href="#J" transform="matrix(1,0,0,1,-1625.1796875,-980.6882733825856) translate(97.45 90)"/><path d="M-1642.48-563.1a6 6 0 0 1 6-6h242.53a6 6 0 0 1 6 6v192a6 6 0 0 1-6 6h-242.53a6 6 0 0 1-6-6z" stroke="#3a414a" fill="#fff"/><path d="M-1642.48-526.7h254.53m-254.53 102.3h254.53" stroke="#3a414a" fill="none"/><use xlink:href="#O" transform="matrix(1,0,0,1,-1634.484375,-561.0882733825856) translate(91.45 17.9)"/><use xlink:href="#b" transform="matrix(1,0,0,1,-1630.484375,-518.6882733825856) translate(0 25.5)"/><use xlink:href="#c" transform="matrix(1,0,0,1,-1630.484375,-518.6882733825856) translate(34.45 25.5)"/><use xlink:href="#M" transform="matrix(1,0,0,1,-1630.484375,-518.6882733825856) translate(0 47.1)"/><use xlink:href="#e" transform="matrix(1,0,0,1,-1630.484375,-518.6882733825856) translate(94.4 47.1)"/><use xlink:href="#N" transform="matrix(1,0,0,1,-1630.484375,-518.6882733825856) translate(0 68.7)"/><use xlink:href="#J" transform="matrix(1,0,0,1,-1630.484375,-518.6882733825856) translate(97.45 68.7)"/><path d="M-760-574a6 6 0 0 1 6-6h240.13a6 6 0 0 1 6 6v192a6 6 0 0 1-6 6H-754a6 6 0 0 1-6-6z" stroke="#3a414a" fill="#fff"/><path d="M-760-537.6h252.13M-760-435.3h252.13" stroke="#3a414a" fill="none"/><use xlink:href="#P" transform="matrix(1,0,0,1,-752,-572) translate(38.56666666666665 17.9)"/><use xlink:href="#b" transform="matrix(1,0,0,1,-748,-529.6) translate(0 25.5)"/><use xlink:href="#c" transform="matrix(1,0,0,1,-748,-529.6) translate(34.45 25.5)"/><use xlink:href="#Q" transform="matrix(1,0,0,1,-748,-529.6) translate(0 47.1)"/><use xlink:href="#k" transform="matrix(1,0,0,1,-748,-529.6) translate(94.65 47.1)"/><use xlink:href="#R" transform="matrix(1,0,0,1,-748,-529.6) translate(0 68.7)"/><use xlink:href="#J" transform="matrix(1,0,0,1,-748,-529.6) translate(89.7 68.7)"/><path d="M-2863.32-734a6 6 0 0 1 6-6h226.3a6 6 0 0 1 6 6v235a6 6 0 0 1-6 6h-226.3a6 6 0 0 1-6-6z" stroke="#3a414a" fill="#fff"/><path d="M-2863.32-697.6h238.3m-238.3 145.5h238.3" stroke="#3a414a" fill="none"/><use xlink:href="#S" transform="matrix(1,0,0,1,-2855.323109203722,-732) translate(29.122222222222206 17.9)"/><use xlink:href="#b" transform="matrix(1,0,0,1,-2851.323109203722,-689.6) translate(0 25.39999999999999)"/><use xlink:href="#c" transform="matrix(1,0,0,1,-2851.323109203722,-689.6) translate(34.45 25.39999999999999)"/><use xlink:href="#q" transform="matrix(1,0,0,1,-2851.323109203722,-689.6) translate(0 46.99999999999999)"/><use xlink:href="#e" transform="matrix(1,0,0,1,-2851.323109203722,-689.6) translate(65.45 46.99999999999999)"/><use xlink:href="#T" transform="matrix(1,0,0,1,-2851.323109203722,-689.6) translate(0 68.6)"/><use xlink:href="#e" transform="matrix(1,0,0,1,-2851.323109203722,-689.6) translate(107.35000000000001 68.6)"/><use xlink:href="#U" transform="matrix(1,0,0,1,-2851.323109203722,-689.6) translate(0 90.20000000000002)"/><use xlink:href="#V" transform="matrix(1,0,0,1,-2851.323109203722,-689.6) translate(59.4 90.20000000000002)"/><use xlink:href="#W" transform="matrix(1,0,0,1,-2851.323109203722,-689.6) translate(0 111.80000000000001)"/><use xlink:href="#X" transform="matrix(1,0,0,1,-2851.323109203722,-689.6) translate(85.45 111.80000000000001)"/><path d="M-2383.55-1439.53h-501.08l-.88.07-.86.2-.8.34-.74.45-.65.56-.57.65-.45.74-.33.8-.2.84-.07.88v401.9h-.95v-401.94l.07-1 .24-.98.38-.94.53-.87.67-.78.77-.66.87-.53.95-.4 1-.23.98-.07h501.12zm690.26-.93l.23.06.22.08.2.13.17.16.15.17.12.2.08.2.05.24.02.2v.1l.03.1.03.07.05.07.06.07.07.05.07.05.08.03.08.02h8.7v.95h-8.84l-.24-.07-.2-.08-.2-.13-.2-.16-.14-.17-.12-.2-.1-.2-.04-.24-.02-.2v-.1l-.03-.1-.03-.07-.04-.07-.05-.07-.07-.05-.07-.05-.06-.03-.08-.02H-1720.02v-.95h26.5zm-53.72.93h-528.63v-.94h528.63z" stroke="#0b0b0b" stroke-width=".05" fill="#0b0b0b"/><path d="M-1653.23-1438l-14.85 14.85-15.15-14.85 15.15-14.85z" fill="#0b0b0b"/><path d="M-1652.56-1438l-15.52 15.52-15.83-15.52 15.82-15.52zm-30 0l14.48 14.18 14.18-14.18-14.18-14.18z" stroke="#0b0b0b" stroke-width=".05" fill="#0b0b0b"/><path d="M-2890.17-1031.6h-.95v-.5h.95z" fill="#0b0b0b"/><path stroke="#0b0b0b" stroke-width=".05" fill="#0b0b0b"/><use xlink:href="#Y" transform="matrix(1,0,0,1,-2383.5499999999997,-1450.8) translate(0 14.4)"/><use xlink:href="#Z" transform="matrix(1,0,0,1,-1747.0146463637623,-1450.8) translate(0 14.4)"/><use xlink:href="#aa" transform="matrix(1,0,0,1,-2882.6488314441135,-1053.3882078477154) translate(0 14.4)"/><path d="M-2079.38-1367.53h-263.34l-.88.07-.85.2-.8.34-.73.45-.66.56-.57.65-.46.74-.33.8-.2.84-.06.88V-1261h-.95v-101.02l.07-1 .23-.98.4-.94.52-.87.66-.78.78-.66.86-.53.94-.4 1-.23.98-.07h263.38zm395.88 0h-345.88v-.94h345.88zm14.6 0h-7.6v-.94h7.6z" stroke="#0b0b0b" stroke-width=".05" fill="#0b0b0b"/><path d="M-1654.14-1368l-14.27 4.63v-9.27z" fill="#0b0b0b"/><path d="M-1652.6-1368l-16.28 5.3v-10.6zm-15.33 3.98l12.25-3.98-12.25-3.98z" stroke="#0b0b0b" stroke-width=".05" fill="#0b0b0b"/><path d="M-2348.26-1260.5h-.95v-.5h.94z" fill="#0b0b0b"/><path stroke="#0b0b0b" stroke-width=".05" fill="#0b0b0b"/><use xlink:href="#ab" transform="matrix(1,0,0,1,-2079.380548954221,-1378.8000008338472) translate(0 14.4)"/><use xlink:href="#aa" transform="matrix(1,0,0,1,-1683.5,-1378.8000008338472) translate(0 14.4)"/><use xlink:href="#ac" transform="matrix(1,0,0,1,-2340.737669816843,-1282.2999232988616) translate(0 14.4)"/><path d="M-2478.97-814.13l.07.88.2.85.33.8.45.74.57.66.65.56.74.45.8.34.85.2.87.07h33.48v.97h-33.52l-1-.08-.98-.25-.94-.4-.86-.52-.77-.66-.66-.77-.52-.87-.4-.94-.23-1-.07-1v-455.48h.95zm769.97-673.15h-764.43l-.88.07-.86.2-.8.33-.74.45-.66.56-.56.66-.45.74-.33.8-.2.85-.07.87v190.55h-.95v-190.6l.07-.98.24-1 .38-.93.53-.86.67-.77.77-.66.87-.52.95-.4 1-.23.98-.07H-1709zm26.1 0h-16.1v-.94h16.1z" stroke="#0b0b0b" stroke-width=".05" fill="#0b0b0b"/><path d="M-1653.23-1487.75l-14.85 14.85-15.15-14.85 15.15-14.85z" fill="#0b0b0b"/><path d="M-1652.56-1487.75l-15.52 15.52-15.83-15.52 15.82-15.52zm-30 0l14.48 14.18 14.18-14.18-14.18-14.18z" stroke="#0b0b0b" stroke-width=".05" fill="#0b0b0b"/><path d="M-2439.45-807.63h-.5v-.96h.5z" fill="#0b0b0b"/><path stroke="#0b0b0b" stroke-width=".05" fill="#0b0b0b"/><use xlink:href="#ad" transform="matrix(1,0,0,1,-2531.8738044241863,-1291.182481240766) translate(0 14.4)"/><use xlink:href="#ac" transform="matrix(1,0,0,1,-1709,-1498.5500005378854) translate(0 14.4)"/><use xlink:href="#Z" transform="matrix(1,0,0,1,-2470.833333333333,-804.1101244066191) translate(0 14.4)"/><path d="M-1779.53-996.13l.07.88.2.84.34.8.45.73.56.66.65.56.74.45.8.34.84.2.88.07h135.8v.96h-135.84l-1-.08-.98-.23-.94-.4-.87-.52-.78-.66-.66-.78-.53-.87-.4-.94-.23-1-.07-1v-222.03h.94zm89.78-283.93v.95h-84.23l-.88.06-.85.2-.8.33-.75.44-.66.57-.57.66-.45.74-.33.8-.2.85-.08.88v33.84h-.94v-33.88l.07-1 .24-1 .4-.93.52-.87.66-.77.77-.66.86-.53.94-.4 1-.22.98-.08zm93.2-5.5l-.08.98-.23 1-.4.93-.52.87-.66.77-.78.65-.86.53-.94.4-1 .23-1 .1h-59.73v-.96h59.7l.9-.07.83-.2.8-.34.74-.45.66-.56.56-.66.46-.74.33-.8.2-.84.07-.9v-3.6h.95z" stroke="#0b0b0b" stroke-width=".05" fill="#0b0b0b"/><path d="M-1582.17-1304.03l-14.85 15.15-14.85-15.15 14.85-14.85z" fill="#0b0b0b"/><path d="M-1581.5-1304.04l-15.52 15.84-15.52-15.84 15.52-15.5zm-29.7 0l14.18 14.48 14.18-14.47-14.18-14.18z" stroke="#0b0b0b" stroke-width=".05" fill="#0b0b0b"/><path d="M-1637.68-989.64h-.5v-.95h.5z" fill="#0b0b0b"/><path stroke="#0b0b0b" stroke-width=".05" fill="#0b0b0b"/><use xlink:href="#ae" transform="matrix(1,0,0,1,-1853.95,-1239.7291596557802) translate(0 14.4)"/><use xlink:href="#Z" transform="matrix(1,0,0,1,-1689.7502658802948,-1290.3882813153932) translate(0 14.4)"/><use xlink:href="#Z" transform="matrix(1,0,0,1,-1665.179671079774,-1015.7131908801238) translate(0 14.4)"/><path d="M-1559.53-1032.1h-.95v-105.1h.95zm43.73-149.47l-.08 1-.24.98-.4.95-.52.87-.66.77-.77.65-.87.53-.93.4-1 .23-1 .1h-31.7l-.9.06-.84.2-.8.33-.75.44-.66.57-.57.66-.45.74-.34.8-.2.85-.07.88v10.77h-.95v-10.8l.08-1 .24-1 .4-.93.52-.87.66-.77.77-.66.86-.53.94-.4.98-.22 1-.08h31.73l.9-.07.83-.2.8-.34.74-.45.66-.56.56-.66.45-.74.33-.8.2-.84.07-.9v-80.9h.95zm0-102.56h-.95v-5.08h.95z" stroke="#0b0b0b" stroke-width=".05" fill="#0b0b0b"/><path d="M-1501.43-1304.03l-14.85 15.15-14.85-15.15 14.85-14.85z" fill="#0b0b0b"/><path d="M-1500.76-1304.04l-15.52 15.84-15.5-15.84 15.5-15.5zm-29.7 0l14.18 14.48 14.18-14.47-14.18-14.18z" stroke="#0b0b0b" stroke-width=".05" fill="#0b0b0b"/><path d="M-1559.53-1031.6h-.95v-.5h.95z" fill="#0b0b0b"/><path stroke="#0b0b0b" stroke-width=".05" fill="#0b0b0b"/><use xlink:href="#af" transform="matrix(1,0,0,1,-1619.976856409342,-1158.8) translate(0 14.4)"/><use xlink:href="#Z" transform="matrix(1,0,0,1,-1529.7756747636724,-1284.1333333333334) translate(0 14.4)"/><use xlink:href="#Z" transform="matrix(1,0,0,1,-1552.001856409342,-1053.3882027304867) translate(0 14.4)"/><path d="M-1159.53-995.03l.07.88.2.84.34.8.45.73.56.66.65.56.74.45.8.34.84.2.88.07h12.98v.96h-13.02l-1-.08-.98-.23-.94-.4-.87-.52-.78-.66-.66-.78-.53-.87-.4-.94-.23-1-.07-1v-39.55h.94zm0-61.12h-.94v-178.45h.94zm-5.46-266.98l1 .23.94.4.87.52.78.66.66.78.53.86.4.94.23 1 .07.98v60.56h-.94v-60.52l-.07-.88-.2-.84-.34-.8-.45-.74-.56-.66-.65-.56-.74-.46-.8-.33-.84-.2-.88-.06h-46.65v-.95h46.7zm-72.23.87v-.95h14.56v.94z" stroke="#0b0b0b" stroke-width=".05" fill="#0b0b0b"/><path d="M-1236.9-1322.74l-15.14 14.85-14.85-14.84 14.86-14.85z" fill="#0b0b0b"/><path d="M-1236.2-1322.74l-15.85 15.52-15.52-15.52 15.52-15.5zm-30.02 0l14.18 14.18 14.47-14.18-14.47-14.18z" stroke="#0b0b0b" stroke-width=".05" fill="#0b0b0b"/><path d="M-1140.5-988.54h-.5v-.95h.5z" fill="#0b0b0b"/><path stroke="#0b0b0b" stroke-width=".05" fill="#0b0b0b"/><use xlink:href="#ag" transform="matrix(1,0,0,1,-1242.95,-1256.196871572963) translate(0 14.4)"/><use xlink:href="#ac" transform="matrix(1,0,0,1,-1222.671533897286,-1333.5364145170438) translate(0 14.4)"/><use xlink:href="#Z" transform="matrix(1,0,0,1,-1173.5,-1056.1508878669836) translate(0 14.4)"/><path d="M-1044-1030.1h-.96v-274.6h.95zm-5.48-349.57l1 .24.93.4.87.52.77.65.65.77.53.87.4.93.23 1 .1.98v47h-.96v-46.95l-.07-.88-.2-.84-.34-.8-.45-.75-.56-.65-.66-.57-.74-.45-.8-.32-.85-.2-.88-.07h-149.57v-.94h149.6zm-186.8.88v-.94h9.2v.95z" stroke="#0b0b0b" stroke-width=".05" fill="#0b0b0b"/><path d="M-1235.94-1379.27l-15.15 14.85-14.84-14.85 14.85-14.85z" fill="#0b0b0b"/><path d="M-1235.26-1379.27l-15.84 15.52-15.5-15.52 15.5-15.52zm-30 0l14.17 14.18 14.48-14.17-14.47-14.18z" stroke="#0b0b0b" stroke-width=".05" fill="#0b0b0b"/><path d="M-1044-1029.6h-.96v-.5h.95z" fill="#0b0b0b"/><path stroke="#0b0b0b" stroke-width=".05" fill="#0b0b0b"/><use xlink:href="#ah" transform="matrix(1,0,0,1,-1125.4141791181562,-1326.3079188453219) translate(0 14.4)"/><use xlink:href="#Z" transform="matrix(1,0,0,1,-1227.069523872614,-1390.0683578551814) translate(0 14.4)"/><use xlink:href="#Z" transform="matrix(1,0,0,1,-1036.4891791181562,-1051.3882048866137) translate(0 14.4)"/><path d="M-937-556l1 .1.98.22.94.4.87.52.76.66.66.77.53.87.4.94.23 1 .08.98v29.22l.06.9.2.83.34.8.45.75.58.66.65.57.74.46.8.33.85.2.88.07h164v.95h-164.04l-1-.08-.98-.24-.94-.4-.87-.52-.77-.66-.66-.77-.53-.86-.38-.93-.24-.98-.07-1v-29.22l-.06-.88-.2-.85-.34-.8-.45-.74-.56-.65-.67-.57-.74-.44-.8-.33-.86-.2-.88-.07h-96.9v-.95zm-358.34-4.65l.2.84.34.8.45.73.56.66.67.55.74.45.8.34.85.2.9.07h120.05v.96h-120.1l-1-.08-.98-.24-.94-.4-.87-.52-.76-.66-.66-.77-.53-.88-.4-.94-.23-1-.08-.98v-694.54h.95v694.5zm-.07-717h-.96v-11.56h.95z" stroke="#0b0b0b" stroke-width=".05" fill="#0b0b0b"/><path d="M-1281.03-1304.03l-14.85 15.15-14.85-15.15 14.85-14.85z" fill="#0b0b0b"/><path d="M-1280.36-1304.04l-15.52 15.84-15.52-15.84 15.52-15.5zm-29.7 0l14.18 14.48 14.18-14.47-14.18-14.18z" stroke="#0b0b0b" stroke-width=".05" fill="#0b0b0b"/><path d="M-760.5-513.82h-.5v-.95h.5z" fill="#0b0b0b"/><path stroke="#0b0b0b" stroke-width=".05" fill="#0b0b0b"/><use xlink:href="#ai" transform="matrix(1,0,0,1,-1169.7996187348533,-566.317864632655) translate(0 14.4)"/><use xlink:href="#Z" transform="matrix(1,0,0,1,-1309.381809339986,-1277.6367355212776) translate(0 14.4)"/><use xlink:href="#Z" transform="matrix(1,0,0,1,-787.9999689044087,-539.896465194209) translate(0 14.4)"/><path d="M-2414.37-1387.03h-364.97l-.88.07-.84.2-.8.34-.74.45-.66.56-.56.65-.45.74-.34.8-.2.84-.08.88v349.4h-.95v-349.44l.08-1 .24-.98.38-.94.53-.87.67-.78.77-.66.87-.53.95-.4.98-.23 1-.07h365zm706.62 0h-671.67v-.94h671.67zm38.84 0h-28.85v-.94h28.84z" stroke="#0b0b0b" stroke-width=".05" fill="#0b0b0b"/><path d="M-2784.88-1031.6h-.95v-.5h.95z" fill="#0b0b0b"/><path stroke="#0b0b0b" stroke-width=".05" fill="#0b0b0b"/><path d="M-1654.14-1387.5l-14.27 4.63v-9.27z" fill="#0b0b0b"/><path d="M-1652.6-1387.5l-16.28 5.3v-10.6zm-15.33 3.98l12.25-3.98-12.25-3.98z" stroke="#0b0b0b" stroke-width=".05" fill="#0b0b0b"/><use xlink:href="#aj" transform="matrix(1,0,0,1,-2414.369406244054,-1398.299999759079) translate(0 14.4)"/><use xlink:href="#aa" transform="matrix(1,0,0,1,-2777.3537048466046,-1053.3882487489543) translate(0 14.4)"/><use xlink:href="#ac" transform="matrix(1,0,0,1,-1707.7489609156519,-1398.299999759079) translate(0 14.4)"/><path d="M-1993.38-1338.96h-211.95l-.9.07-.83.2-.8.34-.74.46-.66.56-.56.66-.45.74-.34.8-.2.84-.08.88v42.55h-.95v-42.58l.08-1 .24-1 .38-.92.53-.87.67-.78.77-.65.87-.54.95-.4.98-.23 1-.08h212zm295.88 0h-251.93v-.95h251.93zm44.48 0h-17.48v-.95h17.48z" stroke="#0b0b0b" stroke-width=".05" fill="#0b0b0b"/><path d="M-2196.5-1276.06l-14.85 14.85-14.85-14.86 14.85-15.15z" fill="#0b0b0b"/><path d="M-2195.84-1276.05l-15.5 15.5-15.53-15.5 15.52-15.84zm-29.7 0l14.2 14.17 14.17-14.18-14.18-14.47z" stroke="#0b0b0b" stroke-width=".05" fill="#0b0b0b"/><path d="M-1652.52-1338.96h-.52v-.95h.52z" fill="#0b0b0b"/><path stroke="#0b0b0b" stroke-width=".05" fill="#0b0b0b"/><use xlink:href="#ak" transform="matrix(1,0,0,1,-1993.3808612893454,-1350.2350488524196) translate(0 14.4)"/><use xlink:href="#ac" transform="matrix(1,0,0,1,-2187.8533034720813,-1282.299971403684) translate(0 14.4)"/><use xlink:href="#Z" transform="matrix(1,0,0,1,-1697.5,-1350.2350488524196) translate(0 14.4)"/><path d="M-2579.53-558.52l.07.88.2.85.34.8.45.75.56.66.65.57.74.45.8.33.84.2.88.07h245.23l.88-.06.84-.2.8-.34.74-.45.67-.56.56-.65.46-.74.32-.8.2-.84.07-.88V-592h.94v33.52l-.08 1-.23.98-.4.94-.53.87-.66.78-.77.66-.87.53-.93.4-1 .23-1 .08h-245.3l-.98-.08-1-.24-.94-.4-.87-.52-.78-.66-.66-.77-.53-.86-.4-.94-.23-1-.07-.98v-74.14h.94zM-2585-780.9l1 .24.94.4.87.52.78.66.66.77.53.86.4.94.23 1 .07.98v120.3h-.94v-120.26l-.07-.88-.2-.85-.34-.8-.45-.75-.56-.66-.65-.57-.74-.45-.8-.33-.84-.2-.88-.07h-199.07l-.87.06-.84.2-.8.34-.75.45-.66.56-.57.65-.46.74-.33.8-.2.84-.07.88v17.6h-.95v-17.64l.08-1 .24-.98.38-.94.53-.87.66-.78.8-.66.85-.53.94-.4.98-.23 1-.08H-2586z" stroke="#0b0b0b" stroke-width=".05" fill="#0b0b0b"/><path d="M-2322.26-592h-.95v-.5h.94z" fill="#0b0b0b"/><path stroke="#0b0b0b" stroke-width=".05" fill="#0b0b0b"/><path d="M-2791.1-742.12l-4.64-14.26h9.27z" fill="#0b0b0b"/><path d="M-2791.1-740.58l-5.3-16.28h10.58zm-4-15.33l4 12.25 3.98-12.26z" stroke="#0b0b0b" stroke-width=".05" fill="#0b0b0b"/><use xlink:href="#al" transform="matrix(1,0,0,1,-2596.975,-654.2204382669506) translate(0 14.4)"/><use xlink:href="#Z" transform="matrix(1,0,0,1,-2357.7349465686652,-592.300039000816) translate(0 14.4)"/><use xlink:href="#Z" transform="matrix(1,0,0,1,-2778.470706789631,-762.2999292591651) translate(0 14.4)"/><path d="M-1455.95-1032.1h-.95v-132.7h.95zm12.67-154.3h-.95v-74.8h.95zm0-96.4h-.95v-20.4h.95z" stroke="#0b0b0b" stroke-width=".05" fill="#0b0b0b"/><path d="M-1455.95-1031.6h-.95v-.5h.95z" fill="#0b0b0b"/><path stroke="#0b0b0b" stroke-width=".05" fill="#0b0b0b"/><path d="M-1439.12-1303.7h-9.27l4.64-14.27z" fill="#0b0b0b"/><path d="M-1438.47-1303.23h-10.57l5.28-16.28zm-9.27-.95h7.97l-4-12.25z" stroke="#0b0b0b" stroke-width=".05" fill="#0b0b0b"/><use xlink:href="#am" transform="matrix(1,0,0,1,-1486.0637634813438,-1186.3882865331464) translate(0 14.4)"/><g><use xlink:href="#Z" transform="matrix(1,0,0,1,-1448.4228285562986,-1053.388245437984) translate(0 14.4)"/></g><g><use xlink:href="#Z" transform="matrix(1,0,0,1,-1457.2546984063893,-1282.8) translate(0 14.4)"/></g><path d="M-1407.53-1032.1h-.94v-61.1h.94zm14.83-149.47l-.08 1-.24.98-.4.95-.52.87-.66.77-.77.65-.87.53-.93.4-1 .23-1 .1h-2.8l-.9.06-.84.2-.8.33-.75.44-.66.57-.57.66-.45.74-.33.8-.2.85-.08.88v54.77h-.94v-54.8l.07-1 .24-1 .4-.93.52-.87.66-.77.77-.66.86-.53.94-.4 1-.22.98-.08h2.83l.9-.07.83-.2.8-.34.74-.45.66-.56.56-.66.44-.74.34-.8.2-.84.07-.9v-69.1h.95zm0-90.76h-.95v-30.87h.95z" stroke="#0b0b0b" stroke-width=".05" fill="#0b0b0b"/><path d="M-1407.53-1031.6h-.94v-.5h.94z" fill="#0b0b0b"/><path stroke="#0b0b0b" stroke-width=".05" fill="#0b0b0b"/><path d="M-1388.54-1303.7h-9.27l4.62-14.27z" fill="#0b0b0b"/><path d="M-1387.9-1303.23h-10.57l5.3-16.28zm-9.26-.95h7.97l-3.98-12.25z" stroke="#0b0b0b" stroke-width=".05" fill="#0b0b0b"/><g><use xlink:href="#an" transform="matrix(1,0,0,1,-1428.9500014795065,-1114.8) translate(0 14.4)"/></g><g><use xlink:href="#Z" transform="matrix(1,0,0,1,-1400.0000014795064,-1053.3882654035874) translate(0 14.4)"/></g><g><use xlink:href="#Z" transform="matrix(1,0,0,1,-1406.6766302068602,-1272.3277478130537) translate(0 14.4)"/></g><path d="M-1409.65-570.1h-.95v-106.7h.94zm-14.04-128.3h-.94v-90.8h.95z" stroke="#0b0b0b" stroke-width=".05" fill="#0b0b0b"/><path d="M-1409.65-569.6h-.95v-.5h.94z" fill="#0b0b0b"/><path stroke="#0b0b0b" stroke-width=".05" fill="#0b0b0b"/><path d="M-1419.53-789.7h-9.27l4.64-14.27z" fill="#0b0b0b"/><path d="M-1418.87-789.23h-10.58l5.3-16.28zm-9.27-.95h7.96l-3.98-12.25z" stroke="#0b0b0b" stroke-width=".05" fill="#0b0b0b"/><g><use xlink:href="#ao" transform="matrix(1,0,0,1,-1453.6452666936375,-698.388312726439) translate(0 14.4)"/></g><g><use xlink:href="#Z" transform="matrix(1,0,0,1,-1402.129628073149,-591.3882667127223) translate(0 14.4)"/></g><g><use xlink:href="#ac" transform="matrix(1,0,0,1,-1446.7961602297507,-805.3883587401557) translate(0 14.4)"/></g><path d="M-1365-533.15h-21.95v-.95h21.95zm28.48-6.46l-.07 1-.23.97-.4.94-.52.88-.66.77-.78.66-.87.54-.94.4-.98.23-1 .08H-1355v-.95h12l.87-.07.85-.2.8-.34.74-.46.65-.56.58-.66.45-.74.33-.8.2-.84.08-.9v-350.92h.94zm0-372.58h-.94v-345.62h.94zm0-367.22h-.94v-23.8h.94z" stroke="#0b0b0b" stroke-width=".05" fill="#0b0b0b"/><path d="M-1386.94-533.15h-.5v-.95h.5z" fill="#0b0b0b"/><path stroke="#0b0b0b" stroke-width=".05" fill="#0b0b0b"/><path d="M-1332.36-1303.7h-9.27l4.64-14.27z" fill="#0b0b0b"/><path d="M-1331.7-1303.23h-10.58l5.3-16.28zm-9.27-.95h7.96l-4-12.25z" stroke="#0b0b0b" stroke-width=".05" fill="#0b0b0b"/><g><use xlink:href="#aj" transform="matrix(1,0,0,1,-1354.4653530205785,-912.1769009824119) translate(0 14.4)"/></g><g><use xlink:href="#ac" transform="matrix(1,0,0,1,-1365,-544.4283023394573) translate(0 14.4)"/></g><g><use xlink:href="#ac" transform="matrix(1,0,0,1,-1341.9903530205786,-1279.3945494052784) translate(0 14.4)"/></g><path d="M-1133.5-384.85h10.34l-.84.35-1 .23-.98.08h-245.1v-.94h237.58zm13.97-21.6h-.94v-81.95h.94zm-185.42-92.27v-.95h100.73v.95zm-82 0v-.95h55v.95z" stroke="#0b0b0b" stroke-width=".05" fill="#0b0b0b"/><path d="M-1386.94-498.72h-.5v-.95h.5z" fill="#0b0b0b"/><path stroke="#0b0b0b" stroke-width=".05" fill="#0b0b0b"/><path d="M-1371.57-380.03l-14.27-4.64 14.27-4.63z" fill="#0b0b0b"/><path d="M-1371.1-379.38l-16.27-5.3 16.28-5.27zm-13.2-5.3l12.26 4v-7.97z" stroke="#0b0b0b" stroke-width=".05" fill="#0b0b0b"/><g><use xlink:href="#ap" transform="matrix(1,0,0,1,-1204.2167374747248,-509.99662141770625) translate(0 14.4)"/></g><g><use xlink:href="#Z" transform="matrix(1,0,0,1,-1331.946065109271,-509.99662141770625) translate(0 14.4)"/></g><g><use xlink:href="#Z" transform="matrix(1,0,0,1,-1133.5,-406.45153359778965) translate(0 14.4)"/></g><path d="M-1306.1-418.5h-80.85v-.96h80.86zm136.57-6.46l-.07 1-.24.98-.4.94-.52.86-.66.78-.77.66-.86.53-.94.38-1 .23-.98.1h-103.1v-.96h103.06l.88-.07.85-.2.8-.33.75-.45.66-.58.57-.66.45-.74.33-.8.2-.84.08-.88v-10.3h.94zm-5.46-48.63l1 .24.94.4.87.52.78.66.66.78.53.86.4.94.23 1 .07 1v10.3h-.94v-10.28l-.07-.88-.2-.84-.34-.8-.45-.74-.56-.66-.65-.56-.74-.46-.8-.33-.84-.2-.88-.07h-120.7v-.95H-1176zm-182.08.88v-.95h33.35v.95z" stroke="#0b0b0b" stroke-width=".05" fill="#0b0b0b"/><path d="M-1356.75-473.2l-15.15 14.85-14.85-14.85 14.85-14.85z" fill="#0b0b0b"/><path d="M-1356.07-473.2l-15.83 15.52-15.52-15.52 15.52-15.5zm-30 0l14.18 14.18 14.48-14.18-14.47-14.18z" stroke="#0b0b0b" stroke-width=".05" fill="#0b0b0b"/><path d="M-1386.94-418.5h-.5v-.96h.5z" fill="#0b0b0b"/><path stroke="#0b0b0b" stroke-width=".05" fill="#0b0b0b"/><g><use xlink:href="#aq" transform="matrix(1,0,0,1,-1196.425,-456.8902815402504) translate(0 14.4)"/></g><g><use xlink:href="#Z" transform="matrix(1,0,0,1,-1306.089689651591,-429.7837784086899) translate(0 14.4)"/></g><g><use xlink:href="#Z" transform="matrix(1,0,0,1,-1323.7295058054435,-483.99675643588483) translate(0 14.4)"/></g><path d="M-934.96-1030.1h-.95v-343.8h.94zm-5.46-378.88l1 .24.92.4.87.52.77.66.66.77.54.88.38.94.24 1 .08.98v7.1h-.95v-7.06l-.08-.88-.2-.85-.33-.8-.47-.73-.56-.65-.66-.57-.73-.45-.8-.33-.84-.2-.88-.07h-277.93v-.95h277.96zm-309.85.88v-.95h20.9v.95z" stroke="#0b0b0b" stroke-width=".05" fill="#0b0b0b"/><path d="M-934.96-1029.6h-.95v-.5h.94z" fill="#0b0b0b"/><path stroke="#0b0b0b" stroke-width=".05" fill="#0b0b0b"/><path d="M-1250.77-1403.94l-14.26-4.64 14.26-4.63z" fill="#0b0b0b"/><path d="M-1250.3-1403.3l-16.27-5.28 16.28-5.3zm-13.2-5.28l12.26 3.98v-7.96z" stroke="#0b0b0b" stroke-width=".05" fill="#0b0b0b"/><g><use xlink:href="#an" transform="matrix(1,0,0,1,-956.3859172066619,-1395.4898321349626) translate(0 14.4)"/></g><g><use xlink:href="#ac" transform="matrix(1,0,0,1,-927.435917206662,-1051.3882432687565) translate(0 14.4)"/></g><g><use xlink:href="#ac" transform="matrix(1,0,0,1,-1229.3812938847514,-1419.378875009824) translate(0 14.4)"/></g><path d="M-868.18-1486.98l.98.23.94.4.87.52.78.66.66.78.53.87.4.94.23 1 .08 1v450.5h-.95v-450.47l-.07-.88-.2-.85-.34-.8-.45-.74-.56-.65-.65-.56-.74-.45-.8-.34-.83-.2-.9-.07h-103.4v-.96h103.45zm-345.72.87v-.96h169.32v.95zm-36.37 0v-.96h9.37v.95z" stroke="#0b0b0b" stroke-width=".05" fill="#0b0b0b"/><path d="M-862.72-1029.6h-.95v-.5h.95z" fill="#0b0b0b"/><path stroke="#0b0b0b" stroke-width=".05" fill="#0b0b0b"/><path d="M-1250.77-1481.95l-14.26-4.64 14.26-4.62z" fill="#0b0b0b"/><path d="M-1250.3-1481.3l-16.27-5.3 16.28-5.28zm-13.2-5.3l12.26 4v-7.97z" stroke="#0b0b0b" stroke-width=".05" fill="#0b0b0b"/><g><use xlink:href="#am" transform="matrix(1,0,0,1,-1044.5809469941446,-1497.3882733825856) translate(0 14.4)"/></g><g><use xlink:href="#Z" transform="matrix(1,0,0,1,-855.1970783057415,-1051.3882686937766) translate(0 14.4)"/></g><g><use xlink:href="#Z" transform="matrix(1,0,0,1,-1240.898055790119,-1497.3882733825856) translate(0 14.4)"/></g><path d="M-676.2-692.52l1 .08 1 .24.93.38.87.54.77.66.66.77.53.87.4.94.23.98.06 1v89.18h-.94v-89.14l-.08-.9-.2-.83-.33-.8-.44-.74-.56-.65-.66-.56-.74-.47-.8-.33-.85-.2-.88-.07H-817.1v-.95zm-315.2-4.66l.2.84.34.8.45.74.56.66.66.56.73.46.8.33.85.2.88.08h140.87v.95h-140.9l-1-.08-1-.24-.93-.37-.86-.53-.78-.67-.66-.77-.53-.86-.4-.94-.23-1-.08-1v-105.05h.94v105.04z" stroke="#0b0b0b" stroke-width=".05" fill="#0b0b0b"/><path d="M-991.46-803.08h-.95v-.5h.94z" fill="#0b0b0b"/><path stroke="#0b0b0b" stroke-width=".05" fill="#0b0b0b"/><path d="M-670.2-582.12l-4.65-14.26h9.27z" fill="#0b0b0b"/><path d="M-670.2-580.58l-5.3-16.28h10.58zm-4-15.33l4 12.25 3.97-12.26z" stroke="#0b0b0b" stroke-width=".05" fill="#0b0b0b"/><g><use xlink:href="#ar" transform="matrix(1,0,0,1,-845.0489830825124,-702.8441291383585) translate(0 14.4)"/></g><g><use xlink:href="#ac" transform="matrix(1,0,0,1,-1009.9375,-803.3883233825854) translate(0 14.4)"/></g><g><use xlink:href="#aa" transform="matrix(1,0,0,1,-657.5752112494006,-602.2999348941314) translate(0 14.4)"/></g><path d="M-573-1521.2l1 .23.94.4.87.52.78.66.66.78.53.87.4.94.23.98.08 1V-581h-.96v-933.8l-.06-.88-.2-.84-.34-.8-.45-.74-.56-.66-.65-.56-.74-.45-.8-.33-.84-.2-.88-.08h-154.5v-.95H-574zm-641.82.86v-.95h414.34v.96zm-35.45 0v-.95h8.45v.96z" stroke="#0b0b0b" stroke-width=".05" fill="#0b0b0b"/><path d="M-567.52-580.5h-.96v-.5h.96z" fill="#0b0b0b"/><path stroke="#0b0b0b" stroke-width=".05" fill="#0b0b0b"/><path d="M-1250.77-1516.17l-14.26-4.64 14.26-4.65z" fill="#0b0b0b"/><path d="M-1250.3-1515.52l-16.27-5.3 16.28-5.28zm-13.2-5.3l12.26 4v-7.97z" stroke="#0b0b0b" stroke-width=".05" fill="#0b0b0b"/><g><use xlink:href="#am" transform="matrix(1,0,0,1,-800.4807960915622,-1531.610632202476) translate(0 14.4)"/></g><g><use xlink:href="#Z" transform="matrix(1,0,0,1,-559.9999989588662,-603.7028477914923) translate(0 14.4)"/></g><g><use xlink:href="#Z" transform="matrix(1,0,0,1,-1241.8213997860992,-1531.610632202476) translate(0 14.4)"/></g><defs><path d="M232-93c-1 65-40 97-104 97C67 4 28-28 28-90v-158h33c8 89-33 224 67 224 102 0 64-133 71-224h33v155" id="as"/><path d="M135-143c-3-34-86-38-87 0 15 53 115 12 119 90S17 21 10-45l28-5c4 36 97 45 98 0-10-56-113-15-118-90-4-57 82-63 122-42 12 7 21 19 24 35" id="at"/><path d="M100-194c63 0 86 42 84 106H49c0 40 14 67 53 68 26 1 43-12 49-29l28 8c-11 28-37 45-77 45C44 4 14-33 15-96c1-61 26-98 85-98zm52 81c6-60-76-77-97-28-3 7-6 17-6 28h103" id="au"/><path d="M114-163C36-179 61-72 57 0H25l-1-190h30c1 12-1 29 2 39 6-27 23-49 58-41v29" id="av"/><g id="a"><use transform="matrix(0.06111111111111111,0,0,0.06111111111111111,0,0)" xlink:href="#as"/><use transform="matrix(0.06111111111111111,0,0,0.06111111111111111,15.827777777777778,0)" xlink:href="#at"/><use transform="matrix(0.06111111111111111,0,0,0.06111111111111111,26.827777777777776,0)" xlink:href="#au"/><use transform="matrix(0.06111111111111111,0,0,0.06111111111111111,39.05,0)" xlink:href="#av"/></g><path d="M118-107v75H92v-75H18v-26h74v-75h26v75h74v26h-74" id="aw"/><path d="M24-231v-30h32v30H24zM24 0v-190h32V0H24" id="ax"/><path d="M85-194c31 0 48 13 60 33l-1-100h32l1 261h-30c-2-10 0-23-3-31C134-8 116 4 85 4 32 4 16-35 15-94c0-66 23-100 70-100zm9 24c-40 0-46 34-46 75 0 40 6 74 45 74 42 0 51-32 51-76 0-42-9-74-50-73" id="ay"/><path d="M33-154v-36h34v36H33zM33 0v-36h34V0H33" id="az"/><g id="b"><use transform="matrix(0.05,0,0,0.05,0,0)" xlink:href="#aw"/><use transform="matrix(0.05,0,0,0.05,10.5,0)" xlink:href="#ax"/><use transform="matrix(0.05,0,0,0.05,14.449999999999998,0)" xlink:href="#ay"/><use transform="matrix(0.05,0,0,0.05,24.45,0)" xlink:href="#az"/></g><path d="M117-194c89-4 53 116 60 194h-32v-121c0-31-8-49-39-48C34-167 62-67 57 0H25l-1-190h30c1 10-1 24 2 32 11-22 29-35 61-36" id="aA"/><path d="M59-47c-2 24 18 29 38 22v24C64 9 27 4 27-40v-127H5v-23h24l9-43h21v43h35v23H59v120" id="aB"/><g id="c"><use transform="matrix(0.05,0,0,0.05,0,0)" xlink:href="#ax"/><use transform="matrix(0.05,0,0,0.05,3.95,0)" xlink:href="#aA"/><use transform="matrix(0.05,0,0,0.05,13.949999999999998,0)" xlink:href="#aB"/></g><path d="M101-234c-31-9-42 10-38 44h38v23H63V0H32v-167H5v-23h27c-7-52 17-82 69-68v24" id="aC"/><path d="M190 0L58-211 59 0H30v-248h39L202-35l-2-213h31V0h-41" id="aD"/><path d="M141-36C126-15 110 5 73 4 37 3 15-17 15-53c-1-64 63-63 125-63 3-35-9-54-41-54-24 1-41 7-42 31l-33-3c5-37 33-52 76-52 45 0 72 20 72 64v82c-1 20 7 32 28 27v20c-31 9-61-2-59-35zM48-53c0 20 12 33 32 33 41-3 63-29 60-74-43 2-92-5-92 41" id="aE"/><path d="M210-169c-67 3-38 105-44 169h-31v-121c0-29-5-50-35-48C34-165 62-65 56 0H25l-1-190h30c1 10-1 24 2 32 10-44 99-50 107 0 11-21 27-35 58-36 85-2 47 119 55 194h-31v-121c0-29-5-49-35-48" id="aF"/><g id="d"><use transform="matrix(0.05,0,0,0.05,0,0)" xlink:href="#aw"/><use transform="matrix(0.05,0,0,0.05,10.5,0)" xlink:href="#aC"/><use transform="matrix(0.05,0,0,0.05,15.5,0)" xlink:href="#ax"/><use transform="matrix(0.05,0,0,0.05,19.45,0)" xlink:href="#av"/><use transform="matrix(0.05,0,0,0.05,25.4,0)" xlink:href="#at"/><use transform="matrix(0.05,0,0,0.05,34.4,0)" xlink:href="#aB"/><use transform="matrix(0.05,0,0,0.05,39.4,0)" xlink:href="#aD"/><use transform="matrix(0.05,0,0,0.05,52.35,0)" xlink:href="#aE"/><use transform="matrix(0.05,0,0,0.05,62.35,0)" xlink:href="#aF"/><use transform="matrix(0.05,0,0,0.05,77.3,0)" xlink:href="#au"/><use transform="matrix(0.05,0,0,0.05,87.3,0)" xlink:href="#az"/></g><path d="M177-190C167-65 218 103 67 71c-23-6-38-20-44-43l32-5c15 47 100 32 89-28v-30C133-14 115 1 83 1 29 1 15-40 15-95c0-56 16-97 71-98 29-1 48 16 59 35 1-10 0-23 2-32h30zM94-22c36 0 50-32 50-73 0-42-14-75-50-75-39 0-46 34-46 75s6 73 46 73" id="aG"/><g id="e"><use transform="matrix(0.05,0,0,0.05,0,0)" xlink:href="#at"/><use transform="matrix(0.05,0,0,0.05,9,0)" xlink:href="#aB"/><use transform="matrix(0.05,0,0,0.05,14,0)" xlink:href="#av"/><use transform="matrix(0.05,0,0,0.05,19.95,0)" xlink:href="#ax"/><use transform="matrix(0.05,0,0,0.05,23.9,0)" xlink:href="#aA"/><use transform="matrix(0.05,0,0,0.05,33.9,0)" xlink:href="#aG"/></g><path d="M24 0v-261h32V0H24" id="aH"/><g id="f"><use transform="matrix(0.05,0,0,0.05,0,0)" xlink:href="#aw"/><use transform="matrix(0.05,0,0,0.05,10.5,0)" xlink:href="#aH"/><use transform="matrix(0.05,0,0,0.05,14.449999999999998,0)" xlink:href="#aE"/><use transform="matrix(0.05,0,0,0.05,24.45,0)" xlink:href="#at"/><use transform="matrix(0.05,0,0,0.05,33.45,0)" xlink:href="#aB"/><use transform="matrix(0.05,0,0,0.05,38.45,0)" xlink:href="#aD"/><use transform="matrix(0.05,0,0,0.05,51.400000000000006,0)" xlink:href="#aE"/><use transform="matrix(0.05,0,0,0.05,61.400000000000006,0)" xlink:href="#aF"/><use transform="matrix(0.05,0,0,0.05,76.35000000000001,0)" xlink:href="#au"/><use transform="matrix(0.05,0,0,0.05,86.35000000000001,0)" xlink:href="#az"/></g><g id="g"><use transform="matrix(0.05,0,0,0.05,0,0)" xlink:href="#aw"/><use transform="matrix(0.05,0,0,0.05,10.5,0)" xlink:href="#au"/><use transform="matrix(0.05,0,0,0.05,20.5,0)" xlink:href="#aF"/><use transform="matrix(0.05,0,0,0.05,35.45,0)" xlink:href="#aE"/><use transform="matrix(0.05,0,0,0.05,45.45,0)" xlink:href="#ax"/><use transform="matrix(0.05,0,0,0.05,49.400000000000006,0)" xlink:href="#aH"/><use transform="matrix(0.05,0,0,0.05,53.35,0)" xlink:href="#az"/></g><path d="M115-194c55 1 70 41 70 98S169 2 115 4C84 4 66-9 55-30l1 105H24l-1-265h31l2 30c10-21 28-34 59-34zm-8 174c40 0 45-34 45-75s-6-73-45-74c-42 0-51 32-51 76 0 43 10 73 51 73" id="aI"/><path d="M206 0h-36l-40-164L89 0H53L-1-190h32L70-26l43-164h34l41 164 42-164h31" id="aJ"/><path d="M100-194c62-1 85 37 85 99 1 63-27 99-86 99S16-35 15-95c0-66 28-99 85-99zM99-20c44 1 53-31 53-75 0-43-8-75-51-75s-53 32-53 75 10 74 51 75" id="aK"/><g id="h"><use transform="matrix(0.05,0,0,0.05,0,0)" xlink:href="#aw"/><use transform="matrix(0.05,0,0,0.05,10.5,0)" xlink:href="#aI"/><use transform="matrix(0.05,0,0,0.05,20.5,0)" xlink:href="#aE"/><use transform="matrix(0.05,0,0,0.05,30.5,0)" xlink:href="#at"/><use transform="matrix(0.05,0,0,0.05,39.5,0)" xlink:href="#at"/><use transform="matrix(0.05,0,0,0.05,48.5,0)" xlink:href="#aJ"/><use transform="matrix(0.05,0,0,0.05,61.45,0)" xlink:href="#aK"/><use transform="matrix(0.05,0,0,0.05,71.45,0)" xlink:href="#av"/><use transform="matrix(0.05,0,0,0.05,77.4,0)" xlink:href="#ay"/><use transform="matrix(0.05,0,0,0.05,87.4,0)" xlink:href="#az"/></g><path d="M30-248c87 1 191-15 191 75 0 78-77 80-158 76V0H30v-248zm33 125c57 0 124 11 124-50 0-59-68-47-124-48v98" id="aL"/><path d="M127-220V0H93v-220H8v-28h204v28h-85" id="aM"/><path d="M143 0L79-87 56-68V0H24v-261h32v163l83-92h37l-77 82L181 0h-38" id="aN"/><g id="i"><use transform="matrix(0.05,0,0,0.05,0,0)" xlink:href="#aw"/><use transform="matrix(0.05,0,0,0.05,10.5,0)" xlink:href="#av"/><use transform="matrix(0.05,0,0,0.05,16.45,0)" xlink:href="#au"/><use transform="matrix(0.05,0,0,0.05,26.450000000000003,0)" xlink:href="#at"/><use transform="matrix(0.05,0,0,0.05,35.45,0)" xlink:href="#au"/><use transform="matrix(0.05,0,0,0.05,45.45,0)" xlink:href="#aB"/><use transform="matrix(0.05,0,0,0.05,50.45,0)" xlink:href="#aL"/><use transform="matrix(0.05,0,0,0.05,62.45,0)" xlink:href="#aE"/><use transform="matrix(0.05,0,0,0.05,72.45,0)" xlink:href="#at"/><use transform="matrix(0.05,0,0,0.05,81.45,0)" xlink:href="#at"/><use transform="matrix(0.05,0,0,0.05,90.45,0)" xlink:href="#aJ"/><use transform="matrix(0.05,0,0,0.05,103.4,0)" xlink:href="#aK"/><use transform="matrix(0.05,0,0,0.05,113.4,0)" xlink:href="#av"/><use transform="matrix(0.05,0,0,0.05,119.35000000000001,0)" xlink:href="#ay"/><use transform="matrix(0.05,0,0,0.05,129.35000000000002,0)" xlink:href="#aM"/><use transform="matrix(0.05,0,0,0.05,138.3,0)" xlink:href="#aK"/><use transform="matrix(0.05,0,0,0.05,148.3,0)" xlink:href="#aN"/><use transform="matrix(0.05,0,0,0.05,157.3,0)" xlink:href="#au"/><use transform="matrix(0.05,0,0,0.05,167.3,0)" xlink:href="#aA"/><use transform="matrix(0.05,0,0,0.05,177.3,0)" xlink:href="#az"/></g><path d="M30 0v-248h187v28H63v79h144v27H63v87h162V0H30" id="aO"/><path d="M141 0L90-78 38 0H4l68-98-65-92h35l48 74 47-74h35l-64 92 68 98h-35" id="aP"/><g id="j"><use transform="matrix(0.05,0,0,0.05,0,0)" xlink:href="#aw"/><use transform="matrix(0.05,0,0,0.05,10.5,0)" xlink:href="#av"/><use transform="matrix(0.05,0,0,0.05,16.45,0)" xlink:href="#au"/><use transform="matrix(0.05,0,0,0.05,26.450000000000003,0)" xlink:href="#at"/><use transform="matrix(0.05,0,0,0.05,35.45,0)" xlink:href="#au"/><use transform="matrix(0.05,0,0,0.05,45.45,0)" xlink:href="#aB"/><use transform="matrix(0.05,0,0,0.05,50.45,0)" xlink:href="#aL"/><use transform="matrix(0.05,0,0,0.05,62.45,0)" xlink:href="#aE"/><use transform="matrix(0.05,0,0,0.05,72.45,0)" xlink:href="#at"/><use transform="matrix(0.05,0,0,0.05,81.45,0)" xlink:href="#at"/><use transform="matrix(0.05,0,0,0.05,90.45,0)" xlink:href="#aJ"/><use transform="matrix(0.05,0,0,0.05,103.4,0)" xlink:href="#aK"/><use transform="matrix(0.05,0,0,0.05,113.4,0)" xlink:href="#av"/><use transform="matrix(0.05,0,0,0.05,119.35000000000001,0)" xlink:href="#ay"/><use transform="matrix(0.05,0,0,0.05,129.35000000000002,0)" xlink:href="#aO"/><use transform="matrix(0.05,0,0,0.05,141.35000000000002,0)" xlink:href="#aP"/><use transform="matrix(0.05,0,0,0.05,150.35000000000002,0)" xlink:href="#aI"/><use transform="matrix(0.05,0,0,0.05,160.35000000000002,0)" xlink:href="#ax"/><use transform="matrix(0.05,0,0,0.05,164.3,0)" xlink:href="#av"/><use transform="matrix(0.05,0,0,0.05,170.25,0)" xlink:href="#au"/><use transform="matrix(0.05,0,0,0.05,180.25,0)" xlink:href="#at"/><use transform="matrix(0.05,0,0,0.05,189.25,0)" xlink:href="#az"/></g><g id="k"><use transform="matrix(0.05,0,0,0.05,0,0)" xlink:href="#ay"/><use transform="matrix(0.05,0,0,0.05,10,0)" xlink:href="#aE"/><use transform="matrix(0.05,0,0,0.05,20,0)" xlink:href="#aB"/><use transform="matrix(0.05,0,0,0.05,25,0)" xlink:href="#au"/><use transform="matrix(0.05,0,0,0.05,35,0)" xlink:href="#aB"/><use transform="matrix(0.05,0,0,0.05,40,0)" xlink:href="#ax"/><use transform="matrix(0.05,0,0,0.05,43.95,0)" xlink:href="#aF"/><use transform="matrix(0.05,0,0,0.05,58.900000000000006,0)" xlink:href="#au"/></g><path d="M179-190L93 31C79 59 56 82 12 73V49c39 6 53-20 64-50L1-190h34L92-34l54-156h33" id="aQ"/><g id="l"><use transform="matrix(0.05,0,0,0.05,0,0)" xlink:href="#aw"/><use transform="matrix(0.05,0,0,0.05,10.5,0)" xlink:href="#aB"/><use transform="matrix(0.05,0,0,0.05,15.5,0)" xlink:href="#aQ"/><use transform="matrix(0.05,0,0,0.05,24.5,0)" xlink:href="#aI"/><use transform="matrix(0.05,0,0,0.05,34.5,0)" xlink:href="#au"/><use transform="matrix(0.05,0,0,0.05,44.5,0)" xlink:href="#az"/></g><g id="m"><use transform="matrix(0.05,0,0,0.05,0,0)" xlink:href="#as"/><use transform="matrix(0.05,0,0,0.05,12.950000000000001,0)" xlink:href="#at"/><use transform="matrix(0.05,0,0,0.05,21.950000000000003,0)" xlink:href="#au"/><use transform="matrix(0.05,0,0,0.05,31.950000000000003,0)" xlink:href="#av"/><use transform="matrix(0.05,0,0,0.05,37.900000000000006,0)" xlink:href="#aM"/><use transform="matrix(0.05,0,0,0.05,47.85000000000001,0)" xlink:href="#aQ"/><use transform="matrix(0.05,0,0,0.05,56.85,0)" xlink:href="#aI"/><use transform="matrix(0.05,0,0,0.05,66.85000000000001,0)" xlink:href="#au"/></g><path d="M96-169c-40 0-48 33-48 73s9 75 48 75c24 0 41-14 43-38l32 2c-6 37-31 61-74 61-59 0-76-41-82-99-10-93 101-131 147-64 4 7 5 14 7 22l-32 3c-4-21-16-35-41-35" id="aR"/><path d="M84 4C-5 8 30-112 23-190h32v120c0 31 7 50 39 49 72-2 45-101 50-169h31l1 190h-30c-1-10 1-25-2-33-11 22-28 36-60 37" id="aS"/><g id="n"><use transform="matrix(0.05,0,0,0.05,0,0)" xlink:href="#aw"/><use transform="matrix(0.05,0,0,0.05,10.5,0)" xlink:href="#aI"/><use transform="matrix(0.05,0,0,0.05,20.5,0)" xlink:href="#av"/><use transform="matrix(0.05,0,0,0.05,26.450000000000003,0)" xlink:href="#aK"/><use transform="matrix(0.05,0,0,0.05,36.45,0)" xlink:href="#aC"/><use transform="matrix(0.05,0,0,0.05,41.45,0)" xlink:href="#ax"/><use transform="matrix(0.05,0,0,0.05,45.400000000000006,0)" xlink:href="#aH"/><use transform="matrix(0.05,0,0,0.05,49.35000000000001,0)" xlink:href="#au"/><use transform="matrix(0.05,0,0,0.05,59.35,0)" xlink:href="#aL"/><use transform="matrix(0.05,0,0,0.05,71.35000000000001,0)" xlink:href="#ax"/><use transform="matrix(0.05,0,0,0.05,75.30000000000001,0)" xlink:href="#aR"/><use transform="matrix(0.05,0,0,0.05,84.30000000000001,0)" xlink:href="#aB"/><use transform="matrix(0.05,0,0,0.05,89.30000000000001,0)" xlink:href="#aS"/><use transform="matrix(0.05,0,0,0.05,99.30000000000001,0)" xlink:href="#av"/><use transform="matrix(0.05,0,0,0.05,105.25,0)" xlink:href="#au"/><use transform="matrix(0.05,0,0,0.05,115.25,0)" xlink:href="#az"/></g><g id="o"><use transform="matrix(0.05,0,0,0.05,0,0)" xlink:href="#at"/><use transform="matrix(0.05,0,0,0.05,9,0)" xlink:href="#aB"/><use transform="matrix(0.05,0,0,0.05,14,0)" xlink:href="#av"/><use transform="matrix(0.05,0,0,0.05,19.95,0)" xlink:href="#ax"/><use transform="matrix(0.05,0,0,0.05,23.9,0)" xlink:href="#aA"/><use transform="matrix(0.05,0,0,0.05,33.9,0)" xlink:href="#aG"/></g><g id="p"><use transform="matrix(0.06111111111111111,0,0,0.06111111111111111,0,0)" xlink:href="#aM"/><use transform="matrix(0.06111111111111111,0,0,0.06111111111111111,10.938888888888888,0)" xlink:href="#au"/><use transform="matrix(0.06111111111111111,0,0,0.06111111111111111,23.16111111111111,0)" xlink:href="#aA"/><use transform="matrix(0.06111111111111111,0,0,0.06111111111111111,35.38333333333333,0)" xlink:href="#aE"/><use transform="matrix(0.06111111111111111,0,0,0.06111111111111111,47.605555555555554,0)" xlink:href="#aA"/><use transform="matrix(0.06111111111111111,0,0,0.06111111111111111,59.827777777777776,0)" xlink:href="#aB"/></g><g id="q"><use transform="matrix(0.05,0,0,0.05,0,0)" xlink:href="#aw"/><use transform="matrix(0.05,0,0,0.05,10.5,0)" xlink:href="#aA"/><use transform="matrix(0.05,0,0,0.05,20.5,0)" xlink:href="#aE"/><use transform="matrix(0.05,0,0,0.05,30.5,0)" xlink:href="#aF"/><use transform="matrix(0.05,0,0,0.05,45.45,0)" xlink:href="#au"/><use transform="matrix(0.05,0,0,0.05,55.45,0)" xlink:href="#az"/></g><g id="r"><use transform="matrix(0.05,0,0,0.05,0,0)" xlink:href="#aw"/><use transform="matrix(0.05,0,0,0.05,10.5,0)" xlink:href="#ay"/><use transform="matrix(0.05,0,0,0.05,20.5,0)" xlink:href="#aK"/><use transform="matrix(0.05,0,0,0.05,30.5,0)" xlink:href="#aF"/><use transform="matrix(0.05,0,0,0.05,45.45,0)" xlink:href="#aE"/><use transform="matrix(0.05,0,0,0.05,55.45,0)" xlink:href="#ax"/><use transform="matrix(0.05,0,0,0.05,59.400000000000006,0)" xlink:href="#aA"/><use transform="matrix(0.05,0,0,0.05,69.4,0)" xlink:href="#az"/></g><path d="M115-194c53 0 69 39 70 98 0 66-23 100-70 100C84 3 66-7 56-30L54 0H23l1-261h32v101c10-23 28-34 59-34zm-8 174c40 0 45-34 45-75 0-40-5-75-45-74-42 0-51 32-51 76 0 43 10 73 51 73" id="aT"/><g id="s"><use transform="matrix(0.05,0,0,0.05,0,0)" xlink:href="#aw"/><use transform="matrix(0.05,0,0,0.05,10.5,0)" xlink:href="#at"/><use transform="matrix(0.05,0,0,0.05,19.5,0)" xlink:href="#aS"/><use transform="matrix(0.05,0,0,0.05,29.5,0)" xlink:href="#aT"/><use transform="matrix(0.05,0,0,0.05,39.5,0)" xlink:href="#at"/><use transform="matrix(0.05,0,0,0.05,48.5,0)" xlink:href="#aR"/><use transform="matrix(0.05,0,0,0.05,57.5,0)" xlink:href="#av"/><use transform="matrix(0.05,0,0,0.05,63.45,0)" xlink:href="#ax"/><use transform="matrix(0.05,0,0,0.05,67.4,0)" xlink:href="#aI"/><use transform="matrix(0.05,0,0,0.05,77.4,0)" xlink:href="#aB"/><use transform="matrix(0.05,0,0,0.05,82.4,0)" xlink:href="#ax"/><use transform="matrix(0.05,0,0,0.05,86.35000000000001,0)" xlink:href="#aK"/><use transform="matrix(0.05,0,0,0.05,96.35000000000001,0)" xlink:href="#aA"/><use transform="matrix(0.05,0,0,0.05,106.35000000000001,0)" xlink:href="#aL"/><use transform="matrix(0.05,0,0,0.05,118.35000000000001,0)" xlink:href="#aH"/><use transform="matrix(0.05,0,0,0.05,122.30000000000001,0)" xlink:href="#aE"/><use transform="matrix(0.05,0,0,0.05,132.3,0)" xlink:href="#aA"/><use transform="matrix(0.05,0,0,0.05,142.3,0)" xlink:href="#az"/></g><path d="M30-248c118-7 216 8 213 122C240-48 200 0 122 0H30v-248zM63-27c89 8 146-16 146-99s-60-101-146-95v194" id="aU"/><g id="t"><use transform="matrix(0.05,0,0,0.05,0,0)" xlink:href="#aw"/><use transform="matrix(0.05,0,0,0.05,10.5,0)" xlink:href="#aI"/><use transform="matrix(0.05,0,0,0.05,20.5,0)" xlink:href="#aE"/><use transform="matrix(0.05,0,0,0.05,30.5,0)" xlink:href="#aQ"/><use transform="matrix(0.05,0,0,0.05,39.5,0)" xlink:href="#aF"/><use transform="matrix(0.05,0,0,0.05,54.45,0)" xlink:href="#au"/><use transform="matrix(0.05,0,0,0.05,64.45,0)" xlink:href="#aA"/><use transform="matrix(0.05,0,0,0.05,74.45,0)" xlink:href="#aB"/><use transform="matrix(0.05,0,0,0.05,79.45,0)" xlink:href="#aU"/><use transform="matrix(0.05,0,0,0.05,92.4,0)" xlink:href="#au"/><use transform="matrix(0.05,0,0,0.05,102.4,0)" xlink:href="#aB"/><use transform="matrix(0.05,0,0,0.05,107.4,0)" xlink:href="#aE"/><use transform="matrix(0.05,0,0,0.05,117.4,0)" xlink:href="#ax"/><use transform="matrix(0.05,0,0,0.05,121.35000000000001,0)" xlink:href="#aH"/><use transform="matrix(0.05,0,0,0.05,125.30000000000001,0)" xlink:href="#at"/><use transform="matrix(0.05,0,0,0.05,134.3,0)" xlink:href="#az"/></g><path d="M212-179c-10-28-35-45-73-45-59 0-87 40-87 99 0 60 29 101 89 101 43 0 62-24 78-52l27 14C228-24 195 4 139 4 59 4 22-46 18-125c-6-104 99-153 187-111 19 9 31 26 39 46" id="aV"/><g id="u"><use transform="matrix(0.06111111111111111,0,0,0.06111111111111111,0,0)" xlink:href="#aV"/><use transform="matrix(0.06111111111111111,0,0,0.06111111111111111,15.827777777777778,0)" xlink:href="#aK"/><use transform="matrix(0.06111111111111111,0,0,0.06111111111111111,28.049999999999997,0)" xlink:href="#aA"/><use transform="matrix(0.06111111111111111,0,0,0.06111111111111111,40.27222222222222,0)" xlink:href="#at"/><use transform="matrix(0.06111111111111111,0,0,0.06111111111111111,51.27222222222222,0)" xlink:href="#aS"/><use transform="matrix(0.06111111111111111,0,0,0.06111111111111111,63.49444444444444,0)" xlink:href="#aH"/><use transform="matrix(0.06111111111111111,0,0,0.06111111111111111,68.32222222222222,0)" xlink:href="#aB"/><use transform="matrix(0.06111111111111111,0,0,0.06111111111111111,74.43333333333334,0)" xlink:href="#aE"/><use transform="matrix(0.06111111111111111,0,0,0.06111111111111111,86.65555555555557,0)" xlink:href="#aB"/><use transform="matrix(0.06111111111111111,0,0,0.06111111111111111,92.76666666666668,0)" xlink:href="#ax"/><use transform="matrix(0.06111111111111111,0,0,0.06111111111111111,97.59444444444446,0)" xlink:href="#aK"/><use transform="matrix(0.06111111111111111,0,0,0.06111111111111111,109.81666666666669,0)" xlink:href="#aA"/></g><g id="v"><use transform="matrix(0.05,0,0,0.05,0,0)" xlink:href="#aw"/><use transform="matrix(0.05,0,0,0.05,10.5,0)" xlink:href="#at"/><use transform="matrix(0.05,0,0,0.05,19.5,0)" xlink:href="#aB"/><use transform="matrix(0.05,0,0,0.05,24.5,0)" xlink:href="#aE"/><use transform="matrix(0.05,0,0,0.05,34.5,0)" xlink:href="#aB"/><use transform="matrix(0.05,0,0,0.05,39.5,0)" xlink:href="#aS"/><use transform="matrix(0.05,0,0,0.05,49.5,0)" xlink:href="#at"/><use transform="matrix(0.05,0,0,0.05,58.5,0)" xlink:href="#az"/></g><path d="M106-169C34-169 62-67 57 0H25v-261h32l-1 103c12-21 28-36 61-36 89 0 53 116 60 194h-32v-121c2-32-8-49-39-48" id="aW"/><path d="M205 0l-28-72H64L36 0H1l101-248h38L239 0h-34zm-38-99l-47-123c-12 45-31 82-46 123h93" id="aX"/><g id="w"><use transform="matrix(0.05,0,0,0.05,0,0)" xlink:href="#aw"/><use transform="matrix(0.05,0,0,0.05,10.5,0)" xlink:href="#at"/><use transform="matrix(0.05,0,0,0.05,19.5,0)" xlink:href="#aR"/><use transform="matrix(0.05,0,0,0.05,28.5,0)" xlink:href="#aW"/><use transform="matrix(0.05,0,0,0.05,38.5,0)" xlink:href="#au"/><use transform="matrix(0.05,0,0,0.05,48.5,0)" xlink:href="#ay"/><use transform="matrix(0.05,0,0,0.05,58.5,0)" xlink:href="#aS"/><use transform="matrix(0.05,0,0,0.05,68.5,0)" xlink:href="#aH"/><use transform="matrix(0.05,0,0,0.05,72.45,0)" xlink:href="#au"/><use transform="matrix(0.05,0,0,0.05,82.45,0)" xlink:href="#ay"/><use transform="matrix(0.05,0,0,0.05,92.45,0)" xlink:href="#aX"/><use transform="matrix(0.05,0,0,0.05,104.45,0)" xlink:href="#aB"/><use transform="matrix(0.05,0,0,0.05,109.45,0)" xlink:href="#az"/></g><path d="M30 0v-248h33v221h125V0H30" id="aY"/><g id="x"><use transform="matrix(0.05,0,0,0.05,0,0)" xlink:href="#aw"/><use transform="matrix(0.05,0,0,0.05,10.5,0)" xlink:href="#aJ"/><use transform="matrix(0.05,0,0,0.05,23.450000000000003,0)" xlink:href="#aE"/><use transform="matrix(0.05,0,0,0.05,33.45,0)" xlink:href="#ax"/><use transform="matrix(0.05,0,0,0.05,37.400000000000006,0)" xlink:href="#aB"/><use transform="matrix(0.05,0,0,0.05,42.400000000000006,0)" xlink:href="#ax"/><use transform="matrix(0.05,0,0,0.05,46.35000000000001,0)" xlink:href="#aA"/><use transform="matrix(0.05,0,0,0.05,56.35,0)" xlink:href="#aG"/><use transform="matrix(0.05,0,0,0.05,66.35000000000001,0)" xlink:href="#aY"/><use transform="matrix(0.05,0,0,0.05,76.35000000000001,0)" xlink:href="#ax"/><use transform="matrix(0.05,0,0,0.05,80.30000000000001,0)" xlink:href="#at"/><use transform="matrix(0.05,0,0,0.05,89.30000000000001,0)" xlink:href="#aB"/><use transform="matrix(0.05,0,0,0.05,94.30000000000001,0)" xlink:href="#aL"/><use transform="matrix(0.05,0,0,0.05,106.30000000000001,0)" xlink:href="#aK"/><use transform="matrix(0.05,0,0,0.05,116.30000000000001,0)" xlink:href="#at"/><use transform="matrix(0.05,0,0,0.05,125.30000000000001,0)" xlink:href="#ax"/><use transform="matrix(0.05,0,0,0.05,129.25,0)" xlink:href="#aB"/><use transform="matrix(0.05,0,0,0.05,134.25,0)" xlink:href="#ax"/><use transform="matrix(0.05,0,0,0.05,138.2,0)" xlink:href="#aK"/><use transform="matrix(0.05,0,0,0.05,148.2,0)" xlink:href="#aA"/><use transform="matrix(0.05,0,0,0.05,158.2,0)" xlink:href="#az"/></g><g id="y"><use transform="matrix(0.05,0,0,0.05,0,0)" xlink:href="#ax"/><use transform="matrix(0.05,0,0,0.05,3.95,0)" xlink:href="#aA"/><use transform="matrix(0.05,0,0,0.05,13.949999999999998,0)" xlink:href="#aB"/></g><path d="M185-189c-5-48-123-54-124 2 14 75 158 14 163 119 3 78-121 87-175 55-17-10-28-26-33-46l33-7c5 56 141 63 141-1 0-78-155-14-162-118-5-82 145-84 179-34 5 7 8 16 11 25" id="aZ"/><g id="z"><use transform="matrix(0.06111111111111111,0,0,0.06111111111111111,0,0)" xlink:href="#aZ"/><use transform="matrix(0.06111111111111111,0,0,0.06111111111111111,14.666666666666666,0)" xlink:href="#aS"/><use transform="matrix(0.06111111111111111,0,0,0.06111111111111111,26.888888888888886,0)" xlink:href="#aT"/><use transform="matrix(0.06111111111111111,0,0,0.06111111111111111,39.11111111111111,0)" xlink:href="#at"/><use transform="matrix(0.06111111111111111,0,0,0.06111111111111111,50.11111111111111,0)" xlink:href="#aR"/><use transform="matrix(0.06111111111111111,0,0,0.06111111111111111,61.11111111111111,0)" xlink:href="#av"/><use transform="matrix(0.06111111111111111,0,0,0.06111111111111111,68.38333333333333,0)" xlink:href="#ax"/><use transform="matrix(0.06111111111111111,0,0,0.06111111111111111,73.21111111111111,0)" xlink:href="#aI"/><use transform="matrix(0.06111111111111111,0,0,0.06111111111111111,85.43333333333334,0)" xlink:href="#aB"/><use transform="matrix(0.06111111111111111,0,0,0.06111111111111111,91.54444444444445,0)" xlink:href="#ax"/><use transform="matrix(0.06111111111111111,0,0,0.06111111111111111,96.37222222222223,0)" xlink:href="#aK"/><use transform="matrix(0.06111111111111111,0,0,0.06111111111111111,108.59444444444446,0)" xlink:href="#aA"/></g><g id="A"><use transform="matrix(0.05,0,0,0.05,0,0)" xlink:href="#aw"/><use transform="matrix(0.05,0,0,0.05,10.5,0)" xlink:href="#at"/><use transform="matrix(0.05,0,0,0.05,19.5,0)" xlink:href="#aB"/><use transform="matrix(0.05,0,0,0.05,24.5,0)" xlink:href="#aE"/><use transform="matrix(0.05,0,0,0.05,34.5,0)" xlink:href="#av"/><use transform="matrix(0.05,0,0,0.05,40.45,0)" xlink:href="#aB"/><use transform="matrix(0.05,0,0,0.05,45.45,0)" xlink:href="#aU"/><use transform="matrix(0.05,0,0,0.05,58.400000000000006,0)" xlink:href="#aE"/><use transform="matrix(0.05,0,0,0.05,68.4,0)" xlink:href="#aB"/><use transform="matrix(0.05,0,0,0.05,73.4,0)" xlink:href="#au"/><use transform="matrix(0.05,0,0,0.05,83.4,0)" xlink:href="#az"/></g><g id="B"><use transform="matrix(0.05,0,0,0.05,0,0)" xlink:href="#aw"/><use transform="matrix(0.05,0,0,0.05,10.5,0)" xlink:href="#au"/><use transform="matrix(0.05,0,0,0.05,20.5,0)" xlink:href="#aA"/><use transform="matrix(0.05,0,0,0.05,30.5,0)" xlink:href="#ay"/><use transform="matrix(0.05,0,0,0.05,40.5,0)" xlink:href="#aU"/><use transform="matrix(0.05,0,0,0.05,53.45,0)" xlink:href="#aE"/><use transform="matrix(0.05,0,0,0.05,63.45,0)" xlink:href="#aB"/><use transform="matrix(0.05,0,0,0.05,68.45,0)" xlink:href="#au"/><use transform="matrix(0.05,0,0,0.05,78.45,0)" xlink:href="#az"/></g><g id="C"><use transform="matrix(0.05,0,0,0.05,0,0)" xlink:href="#aw"/><use transform="matrix(0.05,0,0,0.05,10.5,0)" xlink:href="#aI"/><use transform="matrix(0.05,0,0,0.05,20.5,0)" xlink:href="#aE"/><use transform="matrix(0.05,0,0,0.05,30.5,0)" xlink:href="#aQ"/><use transform="matrix(0.05,0,0,0.05,39.5,0)" xlink:href="#aF"/><use transform="matrix(0.05,0,0,0.05,54.45,0)" xlink:href="#au"/><use transform="matrix(0.05,0,0,0.05,64.45,0)" xlink:href="#aA"/><use transform="matrix(0.05,0,0,0.05,74.45,0)" xlink:href="#aB"/><use transform="matrix(0.05,0,0,0.05,79.45,0)" xlink:href="#aZ"/><use transform="matrix(0.05,0,0,0.05,91.45,0)" xlink:href="#aB"/><use transform="matrix(0.05,0,0,0.05,96.45,0)" xlink:href="#aE"/><use transform="matrix(0.05,0,0,0.05,106.45,0)" xlink:href="#aB"/><use transform="matrix(0.05,0,0,0.05,111.45,0)" xlink:href="#aS"/><use transform="matrix(0.05,0,0,0.05,121.45,0)" xlink:href="#at"/><use transform="matrix(0.05,0,0,0.05,130.45,0)" xlink:href="#az"/></g><path d="M240 0l2-218c-23 76-54 145-80 218h-23L58-218 59 0H30v-248h44l77 211c21-75 51-140 76-211h43V0h-30" id="ba"/><g id="D"><use transform="matrix(0.05,0,0,0.05,0,0)" xlink:href="#aw"/><use transform="matrix(0.05,0,0,0.05,10.5,0)" xlink:href="#aI"/><use transform="matrix(0.05,0,0,0.05,20.5,0)" xlink:href="#aE"/><use transform="matrix(0.05,0,0,0.05,30.5,0)" xlink:href="#aQ"/><use transform="matrix(0.05,0,0,0.05,39.5,0)" xlink:href="#aF"/><use transform="matrix(0.05,0,0,0.05,54.45,0)" xlink:href="#au"/><use transform="matrix(0.05,0,0,0.05,64.45,0)" xlink:href="#aA"/><use transform="matrix(0.05,0,0,0.05,74.45,0)" xlink:href="#aB"/><use transform="matrix(0.05,0,0,0.05,79.45,0)" xlink:href="#ba"/><use transform="matrix(0.05,0,0,0.05,94.4,0)" xlink:href="#au"/><use transform="matrix(0.05,0,0,0.05,104.4,0)" xlink:href="#aB"/><use transform="matrix(0.05,0,0,0.05,109.4,0)" xlink:href="#aW"/><use transform="matrix(0.05,0,0,0.05,119.4,0)" xlink:href="#aK"/><use transform="matrix(0.05,0,0,0.05,129.4,0)" xlink:href="#ay"/><use transform="matrix(0.05,0,0,0.05,139.4,0)" xlink:href="#az"/></g><g id="E"><use transform="matrix(0.06111111111111111,0,0,0.06111111111111111,0,0)" xlink:href="#as"/><use transform="matrix(0.06111111111111111,0,0,0.06111111111111111,15.827777777777778,0)" xlink:href="#at"/><use transform="matrix(0.06111111111111111,0,0,0.06111111111111111,26.827777777777776,0)" xlink:href="#au"/><use transform="matrix(0.06111111111111111,0,0,0.06111111111111111,39.05,0)" xlink:href="#av"/><use transform="matrix(0.06111111111111111,0,0,0.06111111111111111,46.32222222222222,0)" xlink:href="#aZ"/><use transform="matrix(0.06111111111111111,0,0,0.06111111111111111,60.98888888888889,0)" xlink:href="#au"/><use transform="matrix(0.06111111111111111,0,0,0.06111111111111111,73.21111111111111,0)" xlink:href="#at"/><use transform="matrix(0.06111111111111111,0,0,0.06111111111111111,84.21111111111111,0)" xlink:href="#at"/><use transform="matrix(0.06111111111111111,0,0,0.06111111111111111,95.21111111111111,0)" xlink:href="#ax"/><use transform="matrix(0.06111111111111111,0,0,0.06111111111111111,100.03888888888889,0)" xlink:href="#aK"/><use transform="matrix(0.06111111111111111,0,0,0.06111111111111111,112.26111111111112,0)" xlink:href="#aA"/></g><path d="M-5 72V49h209v23H-5" id="bb"/><g id="F"><use transform="matrix(0.05,0,0,0.05,0,0)" xlink:href="#aw"/><use transform="matrix(0.05,0,0,0.05,10.5,0)" xlink:href="#at"/><use transform="matrix(0.05,0,0,0.05,19.5,0)" xlink:href="#au"/><use transform="matrix(0.05,0,0,0.05,29.5,0)" xlink:href="#at"/><use transform="matrix(0.05,0,0,0.05,38.5,0)" xlink:href="#at"/><use transform="matrix(0.05,0,0,0.05,47.5,0)" xlink:href="#ax"/><use transform="matrix(0.05,0,0,0.05,51.45,0)" xlink:href="#aK"/><use transform="matrix(0.05,0,0,0.05,61.45,0)" xlink:href="#aA"/><use transform="matrix(0.05,0,0,0.05,71.45,0)" xlink:href="#bb"/><use transform="matrix(0.05,0,0,0.05,81.45,0)" xlink:href="#ax"/><use transform="matrix(0.05,0,0,0.05,85.4,0)" xlink:href="#ay"/><use transform="matrix(0.05,0,0,0.05,95.4,0)" xlink:href="#az"/></g><g id="G"><use transform="matrix(0.05,0,0,0.05,0,0)" xlink:href="#aw"/><use transform="matrix(0.05,0,0,0.05,10.5,0)" xlink:href="#at"/><use transform="matrix(0.05,0,0,0.05,19.5,0)" xlink:href="#au"/><use transform="matrix(0.05,0,0,0.05,29.5,0)" xlink:href="#at"/><use transform="matrix(0.05,0,0,0.05,38.5,0)" xlink:href="#at"/><use transform="matrix(0.05,0,0,0.05,47.5,0)" xlink:href="#ax"/><use transform="matrix(0.05,0,0,0.05,51.45,0)" xlink:href="#aK"/><use transform="matrix(0.05,0,0,0.05,61.45,0)" xlink:href="#aA"/><use transform="matrix(0.05,0,0,0.05,71.45,0)" xlink:href="#bb"/><use transform="matrix(0.05,0,0,0.05,81.45,0)" xlink:href="#aB"/><use transform="matrix(0.05,0,0,0.05,86.45,0)" xlink:href="#aK"/><use transform="matrix(0.05,0,0,0.05,96.45,0)" xlink:href="#aN"/><use transform="matrix(0.05,0,0,0.05,105.45,0)" xlink:href="#au"/><use transform="matrix(0.05,0,0,0.05,115.45,0)" xlink:href="#aA"/><use transform="matrix(0.05,0,0,0.05,125.45,0)" xlink:href="#az"/></g><g id="H"><use transform="matrix(0.05,0,0,0.05,0,0)" xlink:href="#aw"/><use transform="matrix(0.05,0,0,0.05,10.5,0)" xlink:href="#aR"/><use transform="matrix(0.05,0,0,0.05,19.5,0)" xlink:href="#av"/><use transform="matrix(0.05,0,0,0.05,25.45,0)" xlink:href="#au"/><use transform="matrix(0.05,0,0,0.05,35.45,0)" xlink:href="#aE"/><use transform="matrix(0.05,0,0,0.05,45.45,0)" xlink:href="#aB"/><use transform="matrix(0.05,0,0,0.05,50.45,0)" xlink:href="#au"/><use transform="matrix(0.05,0,0,0.05,60.45,0)" xlink:href="#ay"/><use transform="matrix(0.05,0,0,0.05,70.45,0)" xlink:href="#bb"/><use transform="matrix(0.05,0,0,0.05,80.45,0)" xlink:href="#aE"/><use transform="matrix(0.05,0,0,0.05,90.45,0)" xlink:href="#aB"/><use transform="matrix(0.05,0,0,0.05,95.45,0)" xlink:href="#az"/></g><g id="I"><use transform="matrix(0.05,0,0,0.05,0,0)" xlink:href="#aw"/><use transform="matrix(0.05,0,0,0.05,10.5,0)" xlink:href="#au"/><use transform="matrix(0.05,0,0,0.05,20.5,0)" xlink:href="#aP"/><use transform="matrix(0.05,0,0,0.05,29.5,0)" xlink:href="#aI"/><use transform="matrix(0.05,0,0,0.05,39.5,0)" xlink:href="#ax"/><use transform="matrix(0.05,0,0,0.05,43.45,0)" xlink:href="#av"/><use transform="matrix(0.05,0,0,0.05,49.400000000000006,0)" xlink:href="#au"/><use transform="matrix(0.05,0,0,0.05,59.400000000000006,0)" xlink:href="#at"/><use transform="matrix(0.05,0,0,0.05,68.4,0)" xlink:href="#bb"/><use transform="matrix(0.05,0,0,0.05,78.4,0)" xlink:href="#aE"/><use transform="matrix(0.05,0,0,0.05,88.4,0)" xlink:href="#aB"/><use transform="matrix(0.05,0,0,0.05,93.4,0)" xlink:href="#az"/></g><g id="J"><use transform="matrix(0.05,0,0,0.05,0,0)" xlink:href="#ay"/><use transform="matrix(0.05,0,0,0.05,10,0)" xlink:href="#aE"/><use transform="matrix(0.05,0,0,0.05,20,0)" xlink:href="#aB"/><use transform="matrix(0.05,0,0,0.05,25,0)" xlink:href="#au"/><use transform="matrix(0.05,0,0,0.05,35,0)" xlink:href="#aB"/><use transform="matrix(0.05,0,0,0.05,40,0)" xlink:href="#ax"/><use transform="matrix(0.05,0,0,0.05,43.95,0)" xlink:href="#aF"/><use transform="matrix(0.05,0,0,0.05,58.900000000000006,0)" xlink:href="#au"/></g><path d="M63-220v92h138v28H63V0H30v-248h175v28H63" id="bc"/><g id="K"><use transform="matrix(0.06111111111111111,0,0,0.06111111111111111,0,0)" xlink:href="#bc"/><use transform="matrix(0.06111111111111111,0,0,0.06111111111111111,13.383333333333333,0)" xlink:href="#au"/><use transform="matrix(0.06111111111111111,0,0,0.06111111111111111,25.605555555555554,0)" xlink:href="#au"/><use transform="matrix(0.06111111111111111,0,0,0.06111111111111111,37.827777777777776,0)" xlink:href="#ay"/><use transform="matrix(0.06111111111111111,0,0,0.06111111111111111,50.05,0)" xlink:href="#aT"/><use transform="matrix(0.06111111111111111,0,0,0.06111111111111111,62.27222222222222,0)" xlink:href="#aE"/><use transform="matrix(0.06111111111111111,0,0,0.06111111111111111,74.49444444444444,0)" xlink:href="#aR"/><use transform="matrix(0.06111111111111111,0,0,0.06111111111111111,85.49444444444444,0)" xlink:href="#aN"/></g><g id="L"><use transform="matrix(0.05,0,0,0.05,0,0)" xlink:href="#aw"/><use transform="matrix(0.05,0,0,0.05,10.5,0)" xlink:href="#av"/><use transform="matrix(0.05,0,0,0.05,16.45,0)" xlink:href="#aE"/><use transform="matrix(0.05,0,0,0.05,26.450000000000003,0)" xlink:href="#aB"/><use transform="matrix(0.05,0,0,0.05,31.450000000000003,0)" xlink:href="#ax"/><use transform="matrix(0.05,0,0,0.05,35.4,0)" xlink:href="#aA"/><use transform="matrix(0.05,0,0,0.05,45.4,0)" xlink:href="#aG"/><use transform="matrix(0.05,0,0,0.05,55.400000000000006,0)" xlink:href="#az"/></g><g id="M"><use transform="matrix(0.05,0,0,0.05,0,0)" xlink:href="#aw"/><use transform="matrix(0.05,0,0,0.05,10.5,0)" xlink:href="#aR"/><use transform="matrix(0.05,0,0,0.05,19.5,0)" xlink:href="#aK"/><use transform="matrix(0.05,0,0,0.05,29.5,0)" xlink:href="#aF"/><use transform="matrix(0.05,0,0,0.05,44.45,0)" xlink:href="#aF"/><use transform="matrix(0.05,0,0,0.05,59.400000000000006,0)" xlink:href="#au"/><use transform="matrix(0.05,0,0,0.05,69.4,0)" xlink:href="#aA"/><use transform="matrix(0.05,0,0,0.05,79.4,0)" xlink:href="#aB"/><use transform="matrix(0.05,0,0,0.05,84.4,0)" xlink:href="#az"/></g><g id="N"><use transform="matrix(0.05,0,0,0.05,0,0)" xlink:href="#aw"/><use transform="matrix(0.05,0,0,0.05,10.5,0)" xlink:href="#aR"/><use transform="matrix(0.05,0,0,0.05,19.5,0)" xlink:href="#av"/><use transform="matrix(0.05,0,0,0.05,25.45,0)" xlink:href="#au"/><use transform="matrix(0.05,0,0,0.05,35.45,0)" xlink:href="#aE"/><use transform="matrix(0.05,0,0,0.05,45.45,0)" xlink:href="#aB"/><use transform="matrix(0.05,0,0,0.05,50.45,0)" xlink:href="#au"/><use transform="matrix(0.05,0,0,0.05,60.45,0)" xlink:href="#ay"/><use transform="matrix(0.05,0,0,0.05,70.45,0)" xlink:href="#aX"/><use transform="matrix(0.05,0,0,0.05,82.45,0)" xlink:href="#aB"/><use transform="matrix(0.05,0,0,0.05,87.45,0)" xlink:href="#az"/></g><path d="M233-177c-1 41-23 64-60 70L243 0h-38l-65-103H63V0H30v-248c88 3 205-21 203 71zM63-129c60-2 137 13 137-47 0-61-80-42-137-45v92" id="bd"/><g id="O"><use transform="matrix(0.06111111111111111,0,0,0.06111111111111111,0,0)" xlink:href="#bd"/><use transform="matrix(0.06111111111111111,0,0,0.06111111111111111,15.827777777777778,0)" xlink:href="#au"/><use transform="matrix(0.06111111111111111,0,0,0.06111111111111111,28.049999999999997,0)" xlink:href="#aI"/><use transform="matrix(0.06111111111111111,0,0,0.06111111111111111,40.27222222222222,0)" xlink:href="#aH"/><use transform="matrix(0.06111111111111111,0,0,0.06111111111111111,45.099999999999994,0)" xlink:href="#aQ"/></g><g id="P"><use transform="matrix(0.06111111111111111,0,0,0.06111111111111111,0,0)" xlink:href="#aV"/><use transform="matrix(0.06111111111111111,0,0,0.06111111111111111,15.827777777777778,0)" xlink:href="#aK"/><use transform="matrix(0.06111111111111111,0,0,0.06111111111111111,28.049999999999997,0)" xlink:href="#aA"/><use transform="matrix(0.06111111111111111,0,0,0.06111111111111111,40.27222222222222,0)" xlink:href="#at"/><use transform="matrix(0.06111111111111111,0,0,0.06111111111111111,51.27222222222222,0)" xlink:href="#aS"/><use transform="matrix(0.06111111111111111,0,0,0.06111111111111111,63.49444444444444,0)" xlink:href="#aH"/><use transform="matrix(0.06111111111111111,0,0,0.06111111111111111,68.32222222222222,0)" xlink:href="#aB"/><use transform="matrix(0.06111111111111111,0,0,0.06111111111111111,74.43333333333334,0)" xlink:href="#aE"/><use transform="matrix(0.06111111111111111,0,0,0.06111111111111111,86.65555555555557,0)" xlink:href="#aB"/><use transform="matrix(0.06111111111111111,0,0,0.06111111111111111,92.76666666666668,0)" xlink:href="#ax"/><use transform="matrix(0.06111111111111111,0,0,0.06111111111111111,97.59444444444446,0)" xlink:href="#aK"/><use transform="matrix(0.06111111111111111,0,0,0.06111111111111111,109.81666666666669,0)" xlink:href="#aA"/><use transform="matrix(0.06111111111111111,0,0,0.06111111111111111,122.03888888888892,0)" xlink:href="#aZ"/><use transform="matrix(0.06111111111111111,0,0,0.06111111111111111,136.70555555555558,0)" xlink:href="#aH"/><use transform="matrix(0.06111111111111111,0,0,0.06111111111111111,141.53333333333336,0)" xlink:href="#aK"/><use transform="matrix(0.06111111111111111,0,0,0.06111111111111111,153.7555555555556,0)" xlink:href="#aB"/></g><g id="Q"><use transform="matrix(0.05,0,0,0.05,0,0)" xlink:href="#aw"/><use transform="matrix(0.05,0,0,0.05,10.5,0)" xlink:href="#at"/><use transform="matrix(0.05,0,0,0.05,19.5,0)" xlink:href="#aB"/><use transform="matrix(0.05,0,0,0.05,24.5,0)" xlink:href="#aE"/><use transform="matrix(0.05,0,0,0.05,34.5,0)" xlink:href="#av"/><use transform="matrix(0.05,0,0,0.05,40.45,0)" xlink:href="#aB"/><use transform="matrix(0.05,0,0,0.05,45.45,0)" xlink:href="#aM"/><use transform="matrix(0.05,0,0,0.05,55.75,0)" xlink:href="#ax"/><use transform="matrix(0.05,0,0,0.05,59.70000000000002,0)" xlink:href="#aF"/><use transform="matrix(0.05,0,0,0.05,74.65,0)" xlink:href="#au"/><use transform="matrix(0.05,0,0,0.05,84.65,0)" xlink:href="#az"/></g><g id="R"><use transform="matrix(0.05,0,0,0.05,0,0)" xlink:href="#aw"/><use transform="matrix(0.05,0,0,0.05,10.5,0)" xlink:href="#au"/><use transform="matrix(0.05,0,0,0.05,20.5,0)" xlink:href="#aA"/><use transform="matrix(0.05,0,0,0.05,30.5,0)" xlink:href="#ay"/><use transform="matrix(0.05,0,0,0.05,40.5,0)" xlink:href="#aM"/><use transform="matrix(0.05,0,0,0.05,50.800000000000004,0)" xlink:href="#ax"/><use transform="matrix(0.05,0,0,0.05,54.75,0)" xlink:href="#aF"/><use transform="matrix(0.05,0,0,0.05,69.7,0)" xlink:href="#au"/><use transform="matrix(0.05,0,0,0.05,79.7,0)" xlink:href="#az"/></g><g id="S"><use transform="matrix(0.06111111111111111,0,0,0.06111111111111111,0,0)" xlink:href="#aZ"/><use transform="matrix(0.06111111111111111,0,0,0.06111111111111111,14.666666666666666,0)" xlink:href="#aS"/><use transform="matrix(0.06111111111111111,0,0,0.06111111111111111,26.888888888888886,0)" xlink:href="#aT"/><use transform="matrix(0.06111111111111111,0,0,0.06111111111111111,39.11111111111111,0)" xlink:href="#at"/><use transform="matrix(0.06111111111111111,0,0,0.06111111111111111,50.11111111111111,0)" xlink:href="#aR"/><use transform="matrix(0.06111111111111111,0,0,0.06111111111111111,61.11111111111111,0)" xlink:href="#av"/><use transform="matrix(0.06111111111111111,0,0,0.06111111111111111,68.38333333333333,0)" xlink:href="#ax"/><use transform="matrix(0.06111111111111111,0,0,0.06111111111111111,73.21111111111111,0)" xlink:href="#aI"/><use transform="matrix(0.06111111111111111,0,0,0.06111111111111111,85.43333333333334,0)" xlink:href="#aB"/><use transform="matrix(0.06111111111111111,0,0,0.06111111111111111,91.54444444444445,0)" xlink:href="#ax"/><use transform="matrix(0.06111111111111111,0,0,0.06111111111111111,96.37222222222223,0)" xlink:href="#aK"/><use transform="matrix(0.06111111111111111,0,0,0.06111111111111111,108.59444444444446,0)" xlink:href="#aA"/><use transform="matrix(0.06111111111111111,0,0,0.06111111111111111,120.81666666666669,0)" xlink:href="#aL"/><use transform="matrix(0.06111111111111111,0,0,0.06111111111111111,135.48333333333335,0)" xlink:href="#aH"/><use transform="matrix(0.06111111111111111,0,0,0.06111111111111111,140.31111111111113,0)" xlink:href="#aE"/><use transform="matrix(0.06111111111111111,0,0,0.06111111111111111,152.53333333333336,0)" xlink:href="#aA"/></g><g id="T"><use transform="matrix(0.05,0,0,0.05,0,0)" xlink:href="#aw"/><use transform="matrix(0.05,0,0,0.05,10.5,0)" xlink:href="#ay"/><use transform="matrix(0.05,0,0,0.05,20.5,0)" xlink:href="#au"/><use transform="matrix(0.05,0,0,0.05,30.5,0)" xlink:href="#at"/><use transform="matrix(0.05,0,0,0.05,39.5,0)" xlink:href="#aR"/><use transform="matrix(0.05,0,0,0.05,48.5,0)" xlink:href="#av"/><use transform="matrix(0.05,0,0,0.05,54.45,0)" xlink:href="#ax"/><use transform="matrix(0.05,0,0,0.05,58.400000000000006,0)" xlink:href="#aI"/><use transform="matrix(0.05,0,0,0.05,68.4,0)" xlink:href="#aB"/><use transform="matrix(0.05,0,0,0.05,73.4,0)" xlink:href="#ax"/><use transform="matrix(0.05,0,0,0.05,77.35000000000001,0)" xlink:href="#aK"/><use transform="matrix(0.05,0,0,0.05,87.35000000000001,0)" xlink:href="#aA"/><use transform="matrix(0.05,0,0,0.05,97.35000000000001,0)" xlink:href="#az"/></g><g id="U"><use transform="matrix(0.05,0,0,0.05,0,0)" xlink:href="#aw"/><use transform="matrix(0.05,0,0,0.05,10.5,0)" xlink:href="#aI"/><use transform="matrix(0.05,0,0,0.05,20.5,0)" xlink:href="#av"/><use transform="matrix(0.05,0,0,0.05,26.450000000000003,0)" xlink:href="#ax"/><use transform="matrix(0.05,0,0,0.05,30.399999999999995,0)" xlink:href="#aR"/><use transform="matrix(0.05,0,0,0.05,39.4,0)" xlink:href="#au"/><use transform="matrix(0.05,0,0,0.05,49.4,0)" xlink:href="#az"/></g><g id="V"><use transform="matrix(0.05,0,0,0.05,0,0)" xlink:href="#aC"/><use transform="matrix(0.05,0,0,0.05,5,0)" xlink:href="#aH"/><use transform="matrix(0.05,0,0,0.05,8.95,0)" xlink:href="#aK"/><use transform="matrix(0.05,0,0,0.05,18.95,0)" xlink:href="#aE"/><use transform="matrix(0.05,0,0,0.05,28.950000000000003,0)" xlink:href="#aB"/></g><g id="W"><use transform="matrix(0.05,0,0,0.05,0,0)" xlink:href="#aw"/><use transform="matrix(0.05,0,0,0.05,10.5,0)" xlink:href="#aC"/><use transform="matrix(0.05,0,0,0.05,15.5,0)" xlink:href="#au"/><use transform="matrix(0.05,0,0,0.05,25.5,0)" xlink:href="#aE"/><use transform="matrix(0.05,0,0,0.05,35.5,0)" xlink:href="#aB"/><use transform="matrix(0.05,0,0,0.05,40.5,0)" xlink:href="#aS"/><use transform="matrix(0.05,0,0,0.05,50.5,0)" xlink:href="#av"/><use transform="matrix(0.05,0,0,0.05,56.45,0)" xlink:href="#au"/><use transform="matrix(0.05,0,0,0.05,66.45,0)" xlink:href="#at"/><use transform="matrix(0.05,0,0,0.05,75.45,0)" xlink:href="#az"/></g><path d="M26 75v-336h71v23H56V52h41v23H26" id="be"/><path d="M3 75V52h41v-290H3v-23h71V75H3" id="bf"/><g id="X"><use transform="matrix(0.05,0,0,0.05,0,0)" xlink:href="#at"/><use transform="matrix(0.05,0,0,0.05,9,0)" xlink:href="#aB"/><use transform="matrix(0.05,0,0,0.05,14,0)" xlink:href="#av"/><use transform="matrix(0.05,0,0,0.05,19.95,0)" xlink:href="#ax"/><use transform="matrix(0.05,0,0,0.05,23.9,0)" xlink:href="#aA"/><use transform="matrix(0.05,0,0,0.05,33.9,0)" xlink:href="#aG"/><use transform="matrix(0.05,0,0,0.05,43.9,0)" xlink:href="#be"/><use transform="matrix(0.05,0,0,0.05,48.9,0)" xlink:href="#bf"/></g><g id="Y"><use transform="matrix(0.05,0,0,0.05,0,0)" xlink:href="#aS"/><use transform="matrix(0.05,0,0,0.05,10,0)" xlink:href="#at"/><use transform="matrix(0.05,0,0,0.05,19,0)" xlink:href="#au"/><use transform="matrix(0.05,0,0,0.05,29,0)" xlink:href="#av"/><use transform="matrix(0.05,0,0,0.05,34.95,0)" xlink:href="#aZ"/><use transform="matrix(0.05,0,0,0.05,46.95,0)" xlink:href="#au"/><use transform="matrix(0.05,0,0,0.05,56.95,0)" xlink:href="#at"/><use transform="matrix(0.05,0,0,0.05,65.95,0)" xlink:href="#at"/><use transform="matrix(0.05,0,0,0.05,74.95,0)" xlink:href="#ax"/><use transform="matrix(0.05,0,0,0.05,78.9,0)" xlink:href="#aK"/><use transform="matrix(0.05,0,0,0.05,88.9,0)" xlink:href="#aA"/><use transform="matrix(0.05,0,0,0.05,98.9,0)" xlink:href="#at"/></g><path d="M101-251c68 0 85 55 85 127S166 4 100 4C33 4 14-52 14-124c0-73 17-127 87-127zm-1 229c47 0 54-49 54-102s-4-102-53-102c-51 0-55 48-55 102 0 53 5 102 54 102" id="bg"/><path d="M33 0v-38h34V0H33" id="bh"/><path d="M80-196l47-18 7 23-49 13 32 44-20 13-27-46-27 45-21-12 33-44-49-13 8-23 47 19-2-53h23" id="bi"/><g id="Z"><use transform="matrix(0.05,0,0,0.05,0,0)" xlink:href="#bg"/><use transform="matrix(0.05,0,0,0.05,10,0)" xlink:href="#bh"/><use transform="matrix(0.05,0,0,0.05,15,0)" xlink:href="#bh"/><use transform="matrix(0.05,0,0,0.05,20,0)" xlink:href="#bi"/></g><use transform="matrix(0.05,0,0,0.05,0,0)" xlink:href="#bi" id="aa"/><g id="ab"><use transform="matrix(0.05,0,0,0.05,0,0)" xlink:href="#aB"/><use transform="matrix(0.05,0,0,0.05,5,0)" xlink:href="#au"/><use transform="matrix(0.05,0,0,0.05,15,0)" xlink:href="#aA"/><use transform="matrix(0.05,0,0,0.05,25,0)" xlink:href="#aE"/><use transform="matrix(0.05,0,0,0.05,35,0)" xlink:href="#aA"/><use transform="matrix(0.05,0,0,0.05,45,0)" xlink:href="#aB"/></g><path d="M27 0v-27h64v-190l-56 39v-29l58-41h29v221h61V0H27" id="bj"/><use transform="matrix(0.05,0,0,0.05,0,0)" xlink:href="#bj" id="ac"/><g id="ad"><use transform="matrix(0.05,0,0,0.05,0,0)" xlink:href="#at"/><use transform="matrix(0.05,0,0,0.05,9,0)" xlink:href="#aS"/><use transform="matrix(0.05,0,0,0.05,19,0)" xlink:href="#aT"/><use transform="matrix(0.05,0,0,0.05,29,0)" xlink:href="#at"/><use transform="matrix(0.05,0,0,0.05,38,0)" xlink:href="#aR"/><use transform="matrix(0.05,0,0,0.05,47,0)" xlink:href="#av"/><use transform="matrix(0.05,0,0,0.05,52.95,0)" xlink:href="#ax"/><use transform="matrix(0.05,0,0,0.05,56.900000000000006,0)" xlink:href="#aI"/><use transform="matrix(0.05,0,0,0.05,66.9,0)" xlink:href="#aB"/><use transform="matrix(0.05,0,0,0.05,71.9,0)" xlink:href="#ax"/><use transform="matrix(0.05,0,0,0.05,75.85000000000001,0)" xlink:href="#aK"/><use transform="matrix(0.05,0,0,0.05,85.85000000000001,0)" xlink:href="#aA"/><use transform="matrix(0.05,0,0,0.05,95.85000000000001,0)" xlink:href="#at"/></g><path d="M108 0H70L1-190h34L89-25l56-165h34" id="bk"/><g id="ae"><use transform="matrix(0.05,0,0,0.05,0,0)" xlink:href="#aC"/><use transform="matrix(0.05,0,0,0.05,5,0)" xlink:href="#au"/><use transform="matrix(0.05,0,0,0.05,15,0)" xlink:href="#au"/><use transform="matrix(0.05,0,0,0.05,25,0)" xlink:href="#ay"/><use transform="matrix(0.05,0,0,0.05,35,0)" xlink:href="#aT"/><use transform="matrix(0.05,0,0,0.05,45,0)" xlink:href="#aE"/><use transform="matrix(0.05,0,0,0.05,55,0)" xlink:href="#aR"/><use transform="matrix(0.05,0,0,0.05,64,0)" xlink:href="#aN"/><use transform="matrix(0.05,0,0,0.05,73,0)" xlink:href="#bd"/><use transform="matrix(0.05,0,0,0.05,85.95,0)" xlink:href="#au"/><use transform="matrix(0.05,0,0,0.05,95.95,0)" xlink:href="#aR"/><use transform="matrix(0.05,0,0,0.05,104.95,0)" xlink:href="#au"/><use transform="matrix(0.05,0,0,0.05,114.95,0)" xlink:href="#ax"/><use transform="matrix(0.05,0,0,0.05,118.9,0)" xlink:href="#bk"/><use transform="matrix(0.05,0,0,0.05,127.9,0)" xlink:href="#au"/><use transform="matrix(0.05,0,0,0.05,137.9,0)" xlink:href="#ay"/></g><path d="M143 4C61 4 22-44 18-125c-5-107 100-154 193-111 17 8 29 25 37 43l-32 9c-13-25-37-40-76-40-61 0-88 39-88 99 0 61 29 100 91 101 35 0 62-11 79-27v-45h-74v-28h105v86C228-13 192 4 143 4" id="bl"/><g id="af"><use transform="matrix(0.05,0,0,0.05,0,0)" xlink:href="#aC"/><use transform="matrix(0.05,0,0,0.05,5,0)" xlink:href="#au"/><use transform="matrix(0.05,0,0,0.05,15,0)" xlink:href="#au"/><use transform="matrix(0.05,0,0,0.05,25,0)" xlink:href="#ay"/><use transform="matrix(0.05,0,0,0.05,35,0)" xlink:href="#aT"/><use transform="matrix(0.05,0,0,0.05,45,0)" xlink:href="#aE"/><use transform="matrix(0.05,0,0,0.05,55,0)" xlink:href="#aR"/><use transform="matrix(0.05,0,0,0.05,64,0)" xlink:href="#aN"/><use transform="matrix(0.05,0,0,0.05,73,0)" xlink:href="#bl"/><use transform="matrix(0.05,0,0,0.05,87,0)" xlink:href="#ax"/><use transform="matrix(0.05,0,0,0.05,90.95,0)" xlink:href="#bk"/><use transform="matrix(0.05,0,0,0.05,99.95,0)" xlink:href="#au"/><use transform="matrix(0.05,0,0,0.05,109.95,0)" xlink:href="#aA"/></g><path d="M160-131c35 5 61 23 61 61C221 17 115-2 30 0v-248c76 3 177-17 177 60 0 33-19 50-47 57zm-97-11c50-1 110 9 110-42 0-47-63-36-110-37v79zm0 115c55-2 124 14 124-45 0-56-70-42-124-44v89" id="bm"/><g id="ag"><use transform="matrix(0.05,0,0,0.05,0,0)" xlink:href="#aR"/><use transform="matrix(0.05,0,0,0.05,9,0)" xlink:href="#aK"/><use transform="matrix(0.05,0,0,0.05,19,0)" xlink:href="#aA"/><use transform="matrix(0.05,0,0,0.05,29,0)" xlink:href="#at"/><use transform="matrix(0.05,0,0,0.05,38,0)" xlink:href="#aS"/><use transform="matrix(0.05,0,0,0.05,48,0)" xlink:href="#aH"/><use transform="matrix(0.05,0,0,0.05,51.95,0)" xlink:href="#aB"/><use transform="matrix(0.05,0,0,0.05,56.95,0)" xlink:href="#aE"/><use transform="matrix(0.05,0,0,0.05,66.95,0)" xlink:href="#aB"/><use transform="matrix(0.05,0,0,0.05,71.95,0)" xlink:href="#ax"/><use transform="matrix(0.05,0,0,0.05,75.9,0)" xlink:href="#aK"/><use transform="matrix(0.05,0,0,0.05,85.9,0)" xlink:href="#aA"/><use transform="matrix(0.05,0,0,0.05,95.9,0)" xlink:href="#at"/><use transform="matrix(0.05,0,0,0.05,104.9,0)" xlink:href="#bm"/><use transform="matrix(0.05,0,0,0.05,116.9,0)" xlink:href="#aK"/><use transform="matrix(0.05,0,0,0.05,126.9,0)" xlink:href="#aK"/><use transform="matrix(0.05,0,0,0.05,136.9,0)" xlink:href="#aN"/><use transform="matrix(0.05,0,0,0.05,145.9,0)" xlink:href="#au"/><use transform="matrix(0.05,0,0,0.05,155.9,0)" xlink:href="#ay"/></g><path d="M197 0v-115H63V0H30v-248h33v105h134v-105h34V0h-34" id="bn"/><g id="ah"><use transform="matrix(0.05,0,0,0.05,0,0)" xlink:href="#aR"/><use transform="matrix(0.05,0,0,0.05,9,0)" xlink:href="#aK"/><use transform="matrix(0.05,0,0,0.05,19,0)" xlink:href="#aA"/><use transform="matrix(0.05,0,0,0.05,29,0)" xlink:href="#at"/><use transform="matrix(0.05,0,0,0.05,38,0)" xlink:href="#aS"/><use transform="matrix(0.05,0,0,0.05,48,0)" xlink:href="#aH"/><use transform="matrix(0.05,0,0,0.05,51.95,0)" xlink:href="#aB"/><use transform="matrix(0.05,0,0,0.05,56.95,0)" xlink:href="#aE"/><use transform="matrix(0.05,0,0,0.05,66.95,0)" xlink:href="#aB"/><use transform="matrix(0.05,0,0,0.05,71.95,0)" xlink:href="#ax"/><use transform="matrix(0.05,0,0,0.05,75.9,0)" xlink:href="#aK"/><use transform="matrix(0.05,0,0,0.05,85.9,0)" xlink:href="#aA"/><use transform="matrix(0.05,0,0,0.05,95.9,0)" xlink:href="#at"/><use transform="matrix(0.05,0,0,0.05,104.9,0)" xlink:href="#bn"/><use transform="matrix(0.05,0,0,0.05,117.85000000000001,0)" xlink:href="#aK"/><use transform="matrix(0.05,0,0,0.05,127.85000000000001,0)" xlink:href="#at"/><use transform="matrix(0.05,0,0,0.05,136.85000000000002,0)" xlink:href="#aB"/><use transform="matrix(0.05,0,0,0.05,141.85000000000002,0)" xlink:href="#au"/><use transform="matrix(0.05,0,0,0.05,151.85000000000002,0)" xlink:href="#ay"/></g><g id="ai"><use transform="matrix(0.05,0,0,0.05,0,0)" xlink:href="#aR"/><use transform="matrix(0.05,0,0,0.05,9,0)" xlink:href="#aK"/><use transform="matrix(0.05,0,0,0.05,19,0)" xlink:href="#aA"/><use transform="matrix(0.05,0,0,0.05,29,0)" xlink:href="#at"/><use transform="matrix(0.05,0,0,0.05,38,0)" xlink:href="#aS"/><use transform="matrix(0.05,0,0,0.05,48,0)" xlink:href="#aH"/><use transform="matrix(0.05,0,0,0.05,51.95,0)" xlink:href="#aB"/><use transform="matrix(0.05,0,0,0.05,56.95,0)" xlink:href="#aE"/><use transform="matrix(0.05,0,0,0.05,66.95,0)" xlink:href="#aB"/><use transform="matrix(0.05,0,0,0.05,71.95,0)" xlink:href="#ax"/><use transform="matrix(0.05,0,0,0.05,75.9,0)" xlink:href="#aK"/><use transform="matrix(0.05,0,0,0.05,85.9,0)" xlink:href="#aA"/><use transform="matrix(0.05,0,0,0.05,95.9,0)" xlink:href="#aZ"/><use transform="matrix(0.05,0,0,0.05,107.9,0)" xlink:href="#aH"/><use transform="matrix(0.05,0,0,0.05,111.85000000000001,0)" xlink:href="#aK"/><use transform="matrix(0.05,0,0,0.05,121.85000000000001,0)" xlink:href="#aB"/><use transform="matrix(0.05,0,0,0.05,126.85000000000001,0)" xlink:href="#at"/></g><g id="aj"><use transform="matrix(0.05,0,0,0.05,0,0)" xlink:href="#aS"/><use transform="matrix(0.05,0,0,0.05,10,0)" xlink:href="#at"/><use transform="matrix(0.05,0,0,0.05,19,0)" xlink:href="#au"/><use transform="matrix(0.05,0,0,0.05,29,0)" xlink:href="#av"/></g><g id="ak"><use transform="matrix(0.05,0,0,0.05,0,0)" xlink:href="#aS"/><use transform="matrix(0.05,0,0,0.05,10,0)" xlink:href="#at"/><use transform="matrix(0.05,0,0,0.05,19,0)" xlink:href="#au"/><use transform="matrix(0.05,0,0,0.05,29,0)" xlink:href="#av"/><use transform="matrix(0.05,0,0,0.05,34.95,0)" xlink:href="#at"/></g><g id="al"><use transform="matrix(0.05,0,0,0.05,0,0)" xlink:href="#aI"/><use transform="matrix(0.05,0,0,0.05,10,0)" xlink:href="#aH"/><use transform="matrix(0.05,0,0,0.05,13.949999999999998,0)" xlink:href="#aE"/><use transform="matrix(0.05,0,0,0.05,23.95,0)" xlink:href="#aA"/></g><g id="am"><use transform="matrix(0.05,0,0,0.05,0,0)" xlink:href="#aE"/><use transform="matrix(0.05,0,0,0.05,10,0)" xlink:href="#ay"/><use transform="matrix(0.05,0,0,0.05,20,0)" xlink:href="#aO"/><use transform="matrix(0.05,0,0,0.05,32,0)" xlink:href="#aP"/><use transform="matrix(0.05,0,0,0.05,41,0)" xlink:href="#aI"/><use transform="matrix(0.05,0,0,0.05,51,0)" xlink:href="#au"/><use transform="matrix(0.05,0,0,0.05,61,0)" xlink:href="#av"/><use transform="matrix(0.05,0,0,0.05,66.95,0)" xlink:href="#aB"/></g><g id="an"><use transform="matrix(0.05,0,0,0.05,0,0)" xlink:href="#aR"/><use transform="matrix(0.05,0,0,0.05,9,0)" xlink:href="#aH"/><use transform="matrix(0.05,0,0,0.05,12.949999999999998,0)" xlink:href="#ax"/><use transform="matrix(0.05,0,0,0.05,16.9,0)" xlink:href="#au"/><use transform="matrix(0.05,0,0,0.05,26.899999999999995,0)" xlink:href="#aA"/><use transform="matrix(0.05,0,0,0.05,36.9,0)" xlink:href="#aB"/></g><g id="ao"><use transform="matrix(0.05,0,0,0.05,0,0)" xlink:href="#aC"/><use transform="matrix(0.05,0,0,0.05,5,0)" xlink:href="#au"/><use transform="matrix(0.05,0,0,0.05,15,0)" xlink:href="#au"/><use transform="matrix(0.05,0,0,0.05,25,0)" xlink:href="#ay"/><use transform="matrix(0.05,0,0,0.05,35,0)" xlink:href="#aT"/><use transform="matrix(0.05,0,0,0.05,45,0)" xlink:href="#aE"/><use transform="matrix(0.05,0,0,0.05,55,0)" xlink:href="#aR"/><use transform="matrix(0.05,0,0,0.05,64,0)" xlink:href="#aN"/></g><g id="ap"><use transform="matrix(0.05,0,0,0.05,0,0)" xlink:href="#aI"/><use transform="matrix(0.05,0,0,0.05,10,0)" xlink:href="#aE"/><use transform="matrix(0.05,0,0,0.05,20,0)" xlink:href="#av"/><use transform="matrix(0.05,0,0,0.05,25.950000000000003,0)" xlink:href="#au"/><use transform="matrix(0.05,0,0,0.05,35.95,0)" xlink:href="#aA"/><use transform="matrix(0.05,0,0,0.05,45.95,0)" xlink:href="#aB"/><use transform="matrix(0.05,0,0,0.05,50.95,0)" xlink:href="#bd"/><use transform="matrix(0.05,0,0,0.05,63.900000000000006,0)" xlink:href="#au"/><use transform="matrix(0.05,0,0,0.05,73.9,0)" xlink:href="#aI"/><use transform="matrix(0.05,0,0,0.05,83.9,0)" xlink:href="#aH"/><use transform="matrix(0.05,0,0,0.05,87.85000000000001,0)" xlink:href="#aQ"/></g><g id="aq"><use transform="matrix(0.05,0,0,0.05,0,0)" xlink:href="#av"/><use transform="matrix(0.05,0,0,0.05,5.95,0)" xlink:href="#au"/><use transform="matrix(0.05,0,0,0.05,15.949999999999998,0)" xlink:href="#aI"/><use transform="matrix(0.05,0,0,0.05,25.950000000000003,0)" xlink:href="#aH"/><use transform="matrix(0.05,0,0,0.05,29.899999999999995,0)" xlink:href="#ax"/><use transform="matrix(0.05,0,0,0.05,33.85,0)" xlink:href="#au"/><use transform="matrix(0.05,0,0,0.05,43.85,0)" xlink:href="#at"/></g><g id="ar"><use transform="matrix(0.05,0,0,0.05,0,0)" xlink:href="#at"/><use transform="matrix(0.05,0,0,0.05,9,0)" xlink:href="#aH"/><use transform="matrix(0.05,0,0,0.05,12.949999999999998,0)" xlink:href="#aK"/><use transform="matrix(0.05,0,0,0.05,22.95,0)" xlink:href="#aB"/></g></defs></g></svg>